<?xml version="1.0" standalone="no"?>
<!DOCTYPE svg PUBLIC "-//W3C//DTD SVG 1.1//EN" "http://www.w3.org/Graphics/SVG/1.1/DTD/svg11.dtd" >
<svg xmlns="http://www.w3.org/2000/svg" xmlns:xlink="http://www.w3.org/1999/xlink" version="1.1">
<metadata>
Created by FontForge 20170731 at Sun Jan  9 22:58:58 2011
 By Aleksey,,,
(C)2001 Nate Piekos. (c)2005 A.A.Eocuie??a, ?onneoeeaoey (c)2005 N.A.Eyiaa, ianeeunoaaiiia eni?aaeaiea ianeieueeo aoea. Mod by Amazingmax.
</metadata>
<defs>
<font id="MODDigitalStripCyrillicBold-Bold" horiz-adv-x="1024" >
  <font-face 
    font-family="MODDigitalStripCyrillicBold"
    font-weight="700"
    font-stretch="normal"
    units-per-em="1024"
    panose-1="2 0 8 3 6 0 0 2 0 4"
    ascent="819"
    descent="-205"
    x-height="692"
    cap-height="816"
    bbox="-25.1607 -210 1254.2 1000"
    underline-thickness="70"
    underline-position="-185"
    unicode-range="U+0020-2122"
  />
<missing-glyph horiz-adv-x="512" 
d="M45 -10l37 740h404l-37 -740h-404zM133 74h236l29 572h-236z" />
    <glyph glyph-name=".notdef" horiz-adv-x="512" 
d="M45 -10l37 740h404l-37 -740h-404zM133 74h236l29 572h-236z" />
    <glyph glyph-name="glyph1" 
 />
    <glyph glyph-name="nonmarkingreturn" horiz-adv-x="351" 
 />
    <glyph glyph-name="space" unicode=" " horiz-adv-x="351" 
 />
    <glyph glyph-name="exclam" unicode="!" horiz-adv-x="363" 
d="M279 355q-2 -40 -30 -69.5t-68 -29.5q-27 0 -44.5 17.5t-15.5 44.5q1 21 18 63q22 50 42 156q18 98 21 162q0 11 -1.5 34t-1.5 34q2 42 36 74.5t76 32.5q64 0 60 -66q-1 -18 -8 -40q-75 -224 -84 -413zM149 -5q-37 0 -63.5 24.5t-24.5 60.5t26.5 63t60.5 27t61.5 -28.5
t24.5 -64.5q-2 -32 -27.5 -57t-57.5 -25z" />
    <glyph glyph-name="quotedbl" unicode="&#x22;" horiz-adv-x="483" 
d="M437 688q0 -12 2.5 -34.5t2.5 -34.5q-2 -34 -33 -58.5t-65 -24.5q-56 0 -53 57q1 21 13.5 57t13.5 53q1 18 -9 55t-10 53q2 37 43 61q35 23 70 23q60 0 57 -56q-2 -28 -16.5 -77.5t-15.5 -73.5zM233 674q-1 -12 2 -34.5t2 -34.5q-2 -34 -33 -58t-64 -24q-57 0 -54 57
q1 21 14 56.5t14 52.5q1 19 -9.5 55.5t-9.5 52.5q2 38 42 63q35 21 70 21q60 0 57 -56q-1 -28 -15.5 -77.5t-15.5 -73.5z" />
    <glyph glyph-name="numbersign" unicode="#" horiz-adv-x="653" 
d="M621 543q-4 -67 -95 -64q-8 -49 -13 -95q28 -1 56 -23q32 -26 30 -65q-2 -42 -42 -59q-30 -13 -71 -10l9 -5q-4 -45 -5 -57q-1 -13 1 -38t1 -38q-2 -38 -31.5 -67t-67.5 -29q-28 0 -45 19t-15 47q1 24 27 107q7 35 12 62q-67 -3 -134 -16q-5 -38 -5 -50q-1 -12 1 -36.5
t1 -36.5q-2 -38 -31 -67t-67 -29q-29 0 -46 20t-15 48q1 20 14 58q8 24 20 75q-21 4 -44 28t-21 55q3 68 89 69q4 30 13 96q-27 1 -52 23q-30 24 -28 62t39 57q28 14 55 13q2 33 3 47q1 15 -2.5 45.5t-3.5 45.5q2 39 31.5 70.5t68.5 31.5q65 0 61 -69q-1 -17 -8.5 -48
t-11 -48.5t-13.5 -82.5q65 0 133 21l2 29q0 16 -3.5 48t-3.5 48q2 40 33.5 71t71.5 31q60 0 56 -72q-1 -24 -12 -72q-11 -51 -13 -60q75 -13 71 -90zM407 480q-76 -3 -140 -15q-10 -64 -17 -128v0q77 0 143 19q4 41 14 124z" />
    <glyph glyph-name="dollar" unicode="$" horiz-adv-x="741" 
d="M698 242q-4 -89 -106 -163q-80 -58 -173 -81v-5q-2 -43 -28 -80q-30 -43 -73 -43q-61 0 -57 81q1 19 3 28q-210 -2 -204 117q2 34 27.5 53.5t58.5 19.5q18 0 45 -12l38 -17q20 -9 68 -10q10 68 28 238q-108 34 -134 45q-100 39 -123 83q-13 25 -11 58q5 104 106 169
q61 39 181 73v-1q2 46 28 85q30 45 75 45q61 0 57 -88q-1 -12 0 -10q25 4 46 4q49 0 81.5 -36t30.5 -84q-2 -35 -28.5 -64t-60.5 -29q-26 0 -62.5 25.5t-33.5 25.5q-11 -69 -22 -179q101 -42 157 -86q91 -71 86 -162zM348 660q-125 -22 -127 -58q-2 -38 119 -70q5 75 8 128z
M566 230q2 56 -128 102q-15 -148 -17 -191q40 8 85 29q58 27 60 60z" />
    <glyph glyph-name="percent" unicode="%" horiz-adv-x="925" 
d="M888 243q-5 -109 -108 -176q-87 -58 -199 -58q-75 0 -134 31q-69 37 -84 80l-34 -68q-34 -53 -91 -53q-30 0 -49.5 20.5t-18.5 50.5q2 25 66 105l83 105q27 43 67 106q-30 -11 -94 -11q-92 0 -161 50q-78 56 -73 147q5 109 107 176q90 59 200 59q164 0 211 -102
q-5 -9 -4 -3q12 45 38 75q33 40 75 40q31 0 54 -19.5t21 -50.5q-1 -30 -37 -73q-57 -69 -171 -246q35 14 101 14q94 0 162 -50q78 -56 73 -149zM353 693q-54 0 -98 -33q-47 -34 -49 -85q-2 -40 23 -63t66 -23q56 0 104 36q51 37 54 90q1 36 -31 58q-29 20 -69 20zM644 326
q-55 0 -99 -33q-48 -35 -51 -86q-2 -39 24 -62t67 -23q54 0 102 36q52 38 54 89q2 36 -29 58q-29 21 -68 21z" />
    <glyph glyph-name="ampersand" unicode="&#x26;" horiz-adv-x="860" 
d="M790 149q-3 -48 3 -94q1 -7 0 -18q-2 -39 -30.5 -69t-66.5 -30q-26 0 -44.5 17.5t-17.5 43.5q1 17 8 38l6 16q-192 -60 -367 -60q-89 0 -153 25q-96 37 -92 116q5 99 152 174q-131 30 -125 146q5 109 180 221q70 46 198 95q140 55 208 55q70 0 67 -52q-1 -24 -30.5 -58.5
t-53.5 -34.5q-9 0 -10 2q-141 -13 -243 -60q-150 -70 -153 -135q-4 -63 136 -63q39 0 69 7q76 17 95 17q29 0 50 -16t20 -45q-2 -31 -30 -55.5t-58 -24.5q-66 0 -190 -44q-134 -49 -136 -93q-2 -36 93 -36q51 0 193 20q149 21 184 37q10 6 27 12q2 26 3 52q1 25 -4.5 73
t-4.5 71q2 38 33.5 69t69.5 31q62 0 59 -63q-1 -22 -5 -37q-34 -131 -40 -250z" />
    <glyph glyph-name="quotesingle" unicode="'" horiz-adv-x="350" 
d="M151 516q-66 0 -63 55q1 25 21 51q26 35 34 49q8 16 19 84q9 60 35 76q29 19 67 19q80 0 77 -57q-1 -19 -16 -41q-43 -67 -49 -79q-19 -36 -30 -85q-7 -34 -34 -53t-61 -19z" />
    <glyph glyph-name="parenleft" unicode="(" horiz-adv-x="500" 
d="M173 387q-4 -72 34 -140q35 -64 96 -108q32 -22 116 -81q40 -28 38 -78q-4 -80 -87 -80q-41 0 -108 69q-233 240 -224 428q10 201 267 437q84 77 151 77q60 0 57 -55q0 -10 -2 -16q-9 -37 -99 -113q-113 -95 -154 -145q-80 -99 -85 -195z" />
    <glyph glyph-name="parenright" unicode=")" horiz-adv-x="541" 
d="M90 -99q-61 0 -58 54q2 46 62 95q125 102 179 165q93 110 98 208q4 74 -39 147q-36 61 -91 102q-19 14 -115 82q-41 29 -38 78q4 80 86 80q43 0 109 -68q233 -240 224 -430q-10 -201 -267 -437q-83 -76 -150 -76z" />
    <glyph glyph-name="asterisk" unicode="*" horiz-adv-x="513" 
d="M433 697q-1 0 23 -23q29 -27 28 -61q-2 -23 -18.5 -40t-39.5 -17q-26 0 -60 26q-12 10 -29 24l2 -43q-2 -33 -24.5 -58.5t-55.5 -25.5q-24 0 -37.5 20t-12.5 42q1 23 13 58q-42 -28 -67 -28q-27 0 -47 15q-25 17 -24 45q2 41 46 59q34 8 35 8q-17 6 -33 17q-31 22 -29 65
q3 56 58 56q29 0 57 -25q11 -11 21 -19q-4 32 -4 37q2 30 24.5 57t52.5 27q57 0 53 -64q0 -17 -7.5 -45t-7.5 -19l22 18q25 19 52 19q29 0 50 -14q27 -17 26 -46q-2 -39 -41 -56z" />
    <glyph glyph-name="plus" unicode="+" horiz-adv-x="631" 
d="M605 421q-3 -70 -89 -70q-20 0 -59 2.5t-58 2.5h-12q-1 -11 2 -52t2 -62q-2 -39 -29.5 -70.5t-65.5 -31.5q-32 0 -49.5 22.5t-15.5 53.5q1 27 15 74q10 36 16 57q-9 -2 -55 -11q-50 -10 -65 -10q-36 0 -64.5 25t-26.5 60t30 55q25 17 60 17q23 0 65.5 -6.5t63.5 -6.5h4
q0 9 -6 52q-8 42 -6 65q1 38 30 72.5t66 34.5q35 0 52 -23.5t15 -55.5q-1 -27 -13 -74q-12 -50 -13 -56l45 13q38 11 61 11q38 0 68 -23q34 -27 32 -65z" />
    <glyph glyph-name="comma" unicode="," horiz-adv-x="397" 
d="M129 -130q-67 0 -64 54q1 19 32 67q32 47 36 63l6 64q9 82 103 82q79 0 76 -55q-1 -20 -16 -42q-35 -55 -49 -83q-17 -47 -35 -96q-25 -54 -89 -54z" />
    <glyph glyph-name="hyphen" unicode="-" horiz-adv-x="661" 
d="M615 424q-1 -35 -35 -55q-26 -14 -61 -14q-19 0 -56.5 2.5t-55.5 2.5q-117 0 -213 -25q-25 -6 -42 -6q-36 0 -64.5 25t-26.5 60q1 34 28.5 53.5t60.5 19.5q24 0 70 -7t68 -7q90 0 159 25q39 15 66 15q37 0 68 -24q36 -28 34 -65z" />
    <glyph glyph-name="hyphen" unicode="&#x2010;" horiz-adv-x="661" 
d="M615 424q-1 -35 -35 -55q-26 -14 -61 -14q-19 0 -56.5 2.5t-55.5 2.5q-117 0 -213 -25q-25 -6 -42 -6q-36 0 -64.5 25t-26.5 60q1 34 28.5 53.5t60.5 19.5q24 0 70 -7t68 -7q90 0 159 25q39 15 66 15q37 0 68 -24q36 -28 34 -65z" />
    <glyph glyph-name="period" unicode="." horiz-adv-x="370" 
d="M186 -3q-36 0 -62.5 24.5t-24.5 59.5t26.5 63t59.5 28q36 0 63 -28t25 -64q-2 -33 -28 -58t-59 -25z" />
    <glyph glyph-name="slash" unicode="/" horiz-adv-x="596" 
d="M86 -4q-32 0 -51 19.5t-17 50.5q0 16 116 180q43 58 126 177q136 207 159 276q35 113 121 113q69 0 66 -65q-2 -35 -36 -77q-94 -119 -243 -355l-74 -117q-17 -36 -53 -104q-41 -78 -72 -89q-23 -9 -42 -9z" />
    <glyph glyph-name="zero" unicode="0" horiz-adv-x="828" 
d="M797 455q-9 -180 -130 -316q-129 -142 -306 -142q-147 0 -237 112q-84 106 -77 253q9 181 129 317q128 143 307 143q148 0 237 -113q84 -106 77 -254zM677 467q4 86 -45 143t-134 57q-126 0 -227.5 -99t-108.5 -225q-4 -86 45.5 -143t135.5 -57q127 0 227 98.5t107 225.5
z" />
    <glyph glyph-name="one" unicode="1" horiz-adv-x="379" 
d="M281 191q-1 -16 0.5 -47t0.5 -47q-2 -37 -31.5 -65.5t-66.5 -28.5q-63 0 -60 62q2 24 14 57q41 116 61 407q4 10 -11 -3q-22 -18 -58 -18q-29 0 -50 14q-27 17 -25 47q1 26 47 66q47 42 56 58q2 2 20 52q27 74 99 74q34 0 58.5 -19.5t22.5 -54.5q0 -11 -5 -31
q-22 -81 -49 -302q-20 -162 -23 -221z" />
    <glyph glyph-name="two" unicode="2" horiz-adv-x="651" 
d="M731.5 136q-21.5 21 -49.5 21q-17 0 -55 -8q-47 -10 -62 -12q-53 -6 -162 -14q317 282 328 499q4 92 -54 138q-53 42 -149 42q-66 0 -151.5 -25t-148.5 -61q-24 -13 -26 -47q-1 -22 8 -38q10 -17 28 -17q10 0 45 23q40 19 120.5 38.5t122.5 19.5q52 0 85 -23
q41 -27 38 -78q-9 -176 -371 -435q-65 -46 -68 -116l-2 -33q-162 -20 109 10q144 16 253 16q18 0 54 -3t54 -3q29 0 51 15t23 42q1 28 -20.5 49z" />
    <glyph glyph-name="three" unicode="3" horiz-adv-x="716" 
d="M550 499q40 -10 81 -44q54 -44 51 -108q-5 -94 -130 -187q-83 -62 -204 -113q-143 -62 -236 -62q-71 0 -68 52q1 30 29 59t58 29q57 0 136 21.5t131 51.5q118 67 121 121q1 31 -43 50q-37 15 -82 15q-58 0 -214 -33q-25 -5 -38 -5q-31 0 -51 16q-24 18 -23 49
q2 31 29.5 54.5t57.5 23.5q56 0 147 21.5t144 45.5q101 47 102 78q3 41 -115 41q-44 0 -134 -15q-94 -16 -130 -31l-27 -13.5t-29 -7.5q-50 0 -47 61q3 60 49 80q149 66 311 66q97 0 166 -25q105 -37 101 -118q-5 -100 -143 -173z" />
    <glyph glyph-name="four" unicode="4" horiz-adv-x="617" 
d="M520 191q-1 -16 1 -49t1 -49q-2 -37 -32.5 -65t-66.5 -28q-28 0 -45 17.5t-16 44.5q1 18 16 57q15 41 35 189l-103 -11q-80 -8 -105 -19q-37 -16 -58 -16q-40 0 -65 23q-38 12 -35 64q0 17 14 52q22 59 28 167q1 29 -6 76t-6 67q2 37 33 68.5t68 31.5q64 0 61 -64
q-1 -17 -6 -37q-27 -104 -33 -213q-3 -55 1 -83q82 0 227 12q11 104 14 173q3 53 0 65q-8 31 -7 47q2 38 34 69.5t70 31.5q61 0 57 -70q0 -15 -4 -31q-58 -225 -72 -520z" />
    <glyph glyph-name="five" unicode="5" horiz-adv-x="720" 
d="M692 341q-5 -95 -118 -184q-79 -62 -193 -111q-133 -57 -224 -57q-73 0 -70 52q1 29 26.5 57t53.5 32q118 16 216 53q146 57 150 134q2 36 -48 56q-39 15 -87 15q-80 0 -205 -31q-12 -12 -40.5 -23t-47.5 -11q-60 0 -57 57q1 26 17 76t17 74q3 59 -14 136q-5 23 -4 42
q2 41 31 74t69 33q19 0 34 -10l161 8q74 4 162 25q22 5 37 5q37 0 65 -27t26 -64q-1 -37 -29.5 -56.5t-64.5 -19.5q-21 0 -62 3.5t-61 3.5q-72 0 -224 -15q-6 -32 -8 -74q-3 -58 2 -105q113 33 209 33q101 0 180 -38q106 -51 101 -143z" />
    <glyph glyph-name="six" unicode="6" horiz-adv-x="732" 
d="M692 309q-3 -65 -80 -162q-117 -149 -275 -149q-142 0 -225 124q-74 111 -67 254q8 166 111 298q114 147 274 147q67 0 119 -31q41 -25 85 -83q31 -39 29 -81q-2 -31 -25.5 -54.5t-54.5 -23.5q-26 0 -47.5 17.5t-20.5 44.5q0 5 1.5 14t1.5 12q1 10 0 15q-36 28 -82 28
q-91 0 -179 -96q-81 -89 -96 -168q102 45 264 45q95 0 166 -28q105 -40 101 -123zM430 311q-143 0 -253 -44q-4 -2 -15 -4q11 -47 55 -83t102 -36q79 0 163 62q64 47 65 70q2 35 -117 35z" />
    <glyph glyph-name="seven" unicode="7" horiz-adv-x="631" 
d="M610 688q-12 -30 -33 -69q-26 -49 -35 -67q-93 -204 -153 -361q-16 -42 -35 -111q-7 -41 -35 -66t-70 -25q-27 0 -46.5 17.5t-17.5 44.5q1 28 34 75q44 62 152 328q70 172 72 206q1 9 -1 3l-20 1q-34 1 -127 -6q-22 -2 -102 -12q-70 -9 -99 -9q-50 0 -47 58q1 31 17 55
q19 31 50 33q23 2 194 10q111 5 191 26q21 5 42 5q38 0 64 -28t24 -66q-2 -24 -19 -42z" />
    <glyph glyph-name="eight" unicode="8" horiz-adv-x="704" 
d="M663 261q-6 -122 -122 -199q-103 -70 -227 -70q-108 0 -186 58q-87 65 -82 173q7 138 146 210q-89 47 -83 157q5 107 106 174q88 59 200 59q94 0 162 -48q78 -55 74 -148q-6 -112 -107 -174q46 -20 82 -70q41 -55 37 -122zM405 710q-55 0 -98 -33q-47 -35 -49 -86
q-2 -39 23 -62.5t65 -23.5q57 0 106 36t52 90q2 36 -30 58q-29 21 -69 21zM391 375q-73 0 -134 -46q-64 -49 -67 -118q-3 -50 37 -80q36 -27 91 -27q72 0 133 47q65 50 69 118q2 48 -39 78q-38 28 -90 28z" />
    <glyph glyph-name="nine" unicode="9" horiz-adv-x="709" 
d="M676 574q0 -5 -12 -61q-1 -1 -8 -59q-25 -203 -28 -260q0 -15 2 -45.5t1 -45.5q-2 -38 -32 -66t-67 -28q-27 0 -44 17.5t-16 43.5q2 33 20 93q20 67 23 89q4 28 13 107q-83 -54 -203 -54q-107 0 -184 57q-88 64 -83 169q6 122 123 199q104 70 226 70q108 0 186 -56
q89 -64 83 -170zM402 688q-72 0 -133 -47q-64 -48 -67 -117q-2 -47 39 -78q38 -29 89 -29q73 0 133 46q65 49 69 118q2 49 -39 79q-38 28 -91 28z" />
    <glyph glyph-name="colon" unicode=":" horiz-adv-x="342" 
d="M205 306q-37 0 -63.5 24.5t-25.5 60.5q2 35 27 63t59 28q37 0 63 -27.5t24 -63.5q-1 -34 -25.5 -59.5t-58.5 -25.5zM170 -3q-36 0 -62.5 24t-24.5 60q2 35 27 63t60 28t61.5 -28.5t24.5 -63.5q-2 -33 -27.5 -58t-58.5 -25z" />
    <glyph glyph-name="semicolon" unicode=";" horiz-adv-x="375" 
d="M227 306q-37 0 -63.5 24.5t-24.5 60.5q2 35 27 63t59 28q35 0 62 -28t25 -63q-2 -34 -26 -59.5t-59 -25.5zM122 -130q-68 0 -65 54q1 20 33 67t36 63l6 64q8 82 102 82q79 0 76 -55q-1 -20 -16 -42q-35 -55 -49 -83q-17 -47 -34 -96q-26 -54 -89 -54z" />
    <glyph glyph-name="less" unicode="&#x3c;" horiz-adv-x="705" 
d="M679 -6q-3 -60 -71 -60q-81 0 -142 74q-16 23 -63 80q-57 67 -166 154q-45 36 -88 61q-72 43 -98 91q-8 15 -7 31q1 15 9 30q30 49 108 92q43 23 94 61q160 119 232 209q80 99 169 99q69 0 66 -61q-2 -51 -88 -105q-166 -105 -395 -326q145 -165 270 -258q28 -19 101 -71
q72 -53 69 -101z" />
    <glyph glyph-name="equal" unicode="=" horiz-adv-x="674" 
d="M611 521q-2 -36 -35 -54q-26 -14 -61 -14q-19 0 -56 2.5t-55 2.5q-51 0 -115 -10q-59 -10 -116 -19q-12 -2 -25 -2q-37 0 -65 25t-26 61t31 54q24 16 58 16q23 0 68.5 -6t67.5 -6q91 0 161 25q39 15 66 15q39 0 71.5 -25.5t30.5 -64.5zM638 294q-2 -36 -36 -55
q-26 -14 -60 -14q-19 0 -56 2.5t-56 2.5q-117 0 -214 -25q-24 -6 -41 -6q-36 0 -64.5 25.5t-27.5 60.5q2 34 31 54q24 17 58 17q24 0 70.5 -7t68.5 -7q89 0 159 26q39 15 66 15q37 0 70.5 -25.5t31.5 -63.5z" />
    <glyph glyph-name="greater" unicode="&#x3e;" horiz-adv-x="717" 
d="M703 425q-3 -52 -104 -116q-29 -19 -110 -67q-117 -88 -180 -155q-24 -27 -73 -80q-67 -73 -145 -73q-71 0 -68 60q3 53 90 107q178 113 309 241l85 83q-120 125 -168 170q-95 88 -193 155q-82 56 -80 106q3 60 73 60q49 0 126 -66q42 -36 131 -132q79 -87 111 -109
q1 -1 102 -69q96 -63 94 -115z" />
    <glyph glyph-name="question" unicode="?" horiz-adv-x="683" 
d="M702 685q-4 -73 -85 -146q-60 -55 -141 -94q-23 -11 -190 -76q-22 -9 -23 -22q0 -3 0.5 -10.5t0.5 -10.5q-4 -74 -76 -74q-42 0 -57.5 17.5t-13.5 59.5q2 44 21 82q23 49 62 60q41 10 144 36q66 17 134 58q85 50 87 81q1 35 -91 35q-80 0 -241 -55q-13 -5 -48 -18
q-40 -25 -56 -25q-28 0 -43 27q-13 22 -12 48q3 45 36 65q70 42 171.5 70.5t181.5 28.5q88 0 149 -24q94 -35 90 -113zM164 -9q-36 0 -63 24.5t-25 60.5q2 34 27 62t58 28q36 0 62.5 -28t24.5 -63q-1 -32 -26 -58t-58 -26z" />
    <glyph glyph-name="at" unicode="@" horiz-adv-x="830" 
d="M800 432q-6 -102 -50 -193q-23 -47 -66 -101q-59 -72 -94 -72q-61 0 -62 197q-24 -24 -88 -57q-71 -37 -123 -37q-103 0 -97 120q6 106 77 180.5t177 74.5q20 0 46.5 -13.5t28.5 -13.5t28 16t45 16q26 0 25 -25q-1 -18 -9 -50t-9 -48q-1 -30 1 -80q3 -60 3 -50
q43 58 47 147t-44 145.5t-134 56.5q-127 0 -228.5 -98t-107.5 -226q-5 -101 63 -158q31 -27 75 -37q41 -10 39 -37q-1 -33 -36 -54q-28 -19 -60 -19q-95 0 -162 142q-40 84 -35 184q9 175 131 312q128 144 300 144q153 0 242 -110q84 -103 77 -256zM500 388q1 19 -24 30
q-23 11 -49 11q-36 0 -70.5 -31t-35.5 -66q-2 -38 39 -38q45 0 89 27q49 28 51 67z" />
    <glyph glyph-name="A" unicode="A" horiz-adv-x="727" 
d="M583 -12q-44 0 -57 70q-4 14 -11 54l-10 58l-300 -26l-13 -40q-28 -93 -102 -93q-30 0 -47.5 19.5t-16.5 48.5q2 24 42 94q63 109 133 260q55 120 100 249l26 71q20 59 54 71q18 7 47 7q53 0 64 -73q2 -29 9 -85q4 -23 13 -71q36 -176 89 -347q17 -42 49 -129
q8 -23 7 -38q-2 -35 -18 -63q-23 -37 -58 -37zM477 298q-40 173 -74 287q-48 -93 -142 -303z" />
    <glyph glyph-name="B" unicode="B" horiz-adv-x="696" 
d="M657 290q-7 -137 -199 -230q-122 -59 -323 -62q-19 -10 -40 -10q-65 0 -62 63q2 43 19 118q21 90 24 117q24 186 30 300q2 49 -1 66q-5 32 -4 48q2 38 33 69t69 31q15 0 24 -5q86 23 157 23q96 0 172 -43q96 -54 91 -146q-5 -98 -99 -154q116 -57 109 -185zM249 663
q-11 -49 -24 -152q67 -1 146 17q97 21 143 62q22 19 23 36q2 51 -139 51q-66 0 -149 -14zM207 353q-13 -104 -16 -162q-1 -28 -1 -43q80 0 162 21q100 25 153 74q31 30 33 58q2 39 -60 56q-43 13 -103 13q-76 0 -168 -17z" />
    <glyph glyph-name="C" unicode="C" horiz-adv-x="673" 
d="M677 604q-2 -30 -23.5 -55t-52.5 -25q-27 0 -48 15q-26 18 -23 47q22 25 2 22q1 12 0 18q-41 31 -98 31q-115 0 -203 -100q-83 -94 -89 -212q-4 -83 40 -141q48 -60 127 -60q40 0 85 16.5t73 42.5q69 78 117 78q23 0 42 -20t17 -43q-1 -27 -42 -75q-123 -142 -273 -142
q-140 0 -224 120q-76 108 -69 251q8 162 110 292q112 145 271 145q75 0 133 -35q42 -26 98 -93q32 -38 30 -77z" />
    <glyph glyph-name="D" unicode="D" horiz-adv-x="733" 
d="M766 727q-68 71 -207 71q-75 0 -180 -23q-14 15 -28 15q-33 0 -60.5 -26t-29.5 -59q-1 -20 3 -59t2 -60q-5 -117 -29 -296q-19 -138 -32 -184q-9 -33 -10 -47l-2 -42q-167 -20 64 3q51 5 91 6q178 23 302 137q185 172 194 355q6 121 -78 209zM529 650q-63 0 -142 -11
q-41 -251 -51 -438q-1 -27 -1 -42q122 4 243 95q165 124 171 243q8 153 -220 153z" />
    <glyph glyph-name="E" unicode="E" horiz-adv-x="666" 
d="M610 424q-3 -69 -80 -69q-16 0 -47.5 3.5t-46.5 3.5q-50 0 -238 -23q-12 -100 -15 -157q-2 -33 -1 -51l155 8q88 4 161 25q20 5 32 5q34 0 61 -28.5t25 -62.5q-3 -66 -74 -66q-19 0 -55 4t-54 4q-91 0 -295 -22q-23 -16 -49 -16q-67 0 -64 64q2 29 16.5 87t17.5 82
q30 212 38 366q2 49 -1 65q-5 30 -4 47q2 40 33 70t71 30q18 0 29 -7q197 8 313 40q19 4 32 4q35 0 61 -28.5t24 -63.5q-3 -64 -73 -64h-142q-33 0 -200 -19q-15 -73 -25 -171l150 7q41 4 119 26q22 6 35 6q36 0 64.5 -31.5t26.5 -67.5z" />
    <glyph glyph-name="F" unicode="F" horiz-adv-x="639" 
d="M639 395q-3 -69 -78 -69q-16 0 -47.5 3t-47.5 3q-54 0 -281 -23q-9 -88 -12 -148q0 -12 1 -36.5t1 -36.5q-2 -37 -32 -66t-67 -29q-66 0 -63 67q1 19 11 51q21 68 29 144q4 41 14 146q14 131 17 194q2 47 0 62q-6 28 -5 46q2 40 34 71t72 31q18 0 30 -8q65 3 140 8
q80 5 140 24q22 6 35 6q34 0 59 -29.5t24 -62.5q-4 -65 -71 -65q-15 0 -43 3t-42 3q-33 0 -227 -18q-11 -56 -29 -212l151 7q87 7 161 27q16 4 33 4q37 0 66 -30.5t27 -66.5z" />
    <glyph glyph-name="G" unicode="G" horiz-adv-x="751" 
d="M708 331q-3 -67 -74 -160q-133 -177 -296 -177q-141 0 -224 124q-75 110 -68 254q8 164 110 296q113 149 272 149q76 0 134 -38q45 -29 96 -93q30 -37 28 -79q-2 -31 -23 -55.5t-52 -24.5q-27 0 -48 15q-26 18 -23 47q0 4 1.5 12.5t1.5 12.5q1 10 -1 15q-40 33 -97 33
q-114 0 -204 -103q-84 -97 -90 -215q-4 -83 41 -143q49 -62 128 -62q53 0 147 53q97 55 99 99q2 35 -71 35q-87 0 -168 -34q-24 -10 -38 -10q-53 0 -49 78q3 64 114 94q75 20 152 20q209 0 202 -143z" />
    <glyph glyph-name="H" unicode="H" horiz-adv-x="687" 
d="M595 190q0 -15 0.5 -45t-0.5 -45q-2 -38 -29.5 -67.5t-65.5 -29.5q-61 0 -58 64q2 30 17 85q15 57 19 82q4 33 12 107q-13 2 -44 2q-46 0 -247 -21q-9 -91 -13 -151q0 -12 1.5 -36t0.5 -36q-2 -38 -30.5 -67t-66.5 -29q-29 0 -45.5 19.5t-15.5 46.5q1 14 12 51.5
t30 180.5q24 178 30 298q2 52 0 69q-5 27 -5 43q2 39 32 71t68 32q64 0 60 -65q0 -12 -5 -34q-16 -63 -38 -248l138 8q85 5 142 22q14 4 12 3q6 59 8 104q3 49 0 64q-6 29 -5 44q1 39 31.5 71t68.5 32q59 0 55 -72q-1 -14 -3 -28q-52 -252 -66 -525z" />
    <glyph glyph-name="I" unicode="I" horiz-adv-x="300" 
d="M210 188q-1 -16 1 -47.5t1 -47.5q-2 -36 -32 -65t-66 -29q-27 0 -45 18t-17 45q1 17 16 56q19 54 41 235q19 157 23 244q3 54 0 67q-8 33 -7 47q2 38 34 69.5t70 31.5q61 0 57 -70q0 -15 -4 -31q-58 -229 -72 -523z" />
    <glyph glyph-name="J" unicode="J" horiz-adv-x="724" 
d="M640 663l-21 -201q-17 -141 -43 -224q-35 -109 -108 -174q-81 -73 -189 -73q-112 0 -188 94q-40 49 -49 121q-6 45 -2 131q4 64 58 64q23 0 42.5 -20.5t18.5 -43.5q0 -9 -3.5 -23.5t-3.5 -21.5q-3 -67 35 -111.5t104 -44.5q52 0 96 24q50 27 62 73q41 151 54 414l1 20
q-41 0 -127 -10q-121 -14 -140 -14h-5q-49 0 -46 69q4 72 56 78q17 2 101 5q157 6 247 29q17 4 29 4q41 0 69 -29t26 -69q-3 -67 -74 -67z" />
    <glyph glyph-name="K" unicode="K" horiz-adv-x="652" 
d="M594 118q-2 -32 -21 -64q-24 -39 -59 -39q-25 0 -59 39q-61 70 -282 200h10q-3 -34 -4 -65q-1 -15 0 -44t0 -44q-2 -41 -28 -71t-66 -30q-29 0 -45.5 18.5t-15.5 46.5q2 35 19 117q20 92 23 118q26 199 31 301q3 48 0 63q-6 29 -5 44q2 40 32.5 72t70.5 32q57 0 53 -72
q-1 -27 -12 -72q-11 -51 -13 -68q-8 -60 -19 -151q223 209 257 275q33 63 81 71q7 1 20 1q30 0 53 -15q27 -19 26 -50q-2 -35 -46 -69q-119 -90 -325 -307q32 -21 127.5 -81t138.5 -70q62 -15 58 -86z" />
    <glyph glyph-name="L" unicode="L" horiz-adv-x="618" 
d="M531 29q-19 0 -55.5 4.5t-54.5 4.5q-80 0 -296 -22q-23 -15 -49 -15q-65 0 -62 61q1 20 12 56q44 141 61 484q2 46 -1 62q-4 27 -4 44q2 38 31.5 70.5t67.5 32.5q62 0 58 -65q0 -12 -6 -35q-15 -69 -40 -272q-22 -182 -25 -230q-1 -37 -1 -60q26 1 157 5q109 4 158 19
q21 6 36 6q32 0 58.5 -28t25.5 -59q-4 -63 -71 -63z" />
    <glyph glyph-name="M" unicode="M" horiz-adv-x="1000" 
d="M928 98q-2 -36 -31.5 -64.5t-65.5 -28.5q-70 0 -66 74q2 13 10 60q5 31 7 66q7 129 5 256q-22 -35 -88 -168q-68 -138 -107 -200l-39 -65q-34 -47 -62 -47q-53 0 -80 48q-7 13 -18 56l-69 266q-28 107 -58 164q-65 -275 -72 -407q-2 -41 -30.5 -71.5t-68.5 -30.5
q-24 0 -40.5 17t-15.5 41q1 17 23 85l28 91q28 113 51 242q23 125 26 172q0 8 -1 24t-1 24q2 42 35 76.5t75 34.5q52 0 49 -58q61 -116 111 -289q23 -80 75 -276l261 526q2 36 31.5 70t68.5 34q67 0 63 -77q-1 -29 -6 -85t-6 -83q-17 -327 3 -447q3 -20 3 -30z" />
    <glyph glyph-name="N" unicode="N" horiz-adv-x="819" 
d="M729 182q-1 -14 0.5 -40.5t0.5 -40.5q-2 -37 -30 -66t-65 -29q-32 0 -45.5 22t-8.5 48q-191 309 -356 467q-32 -217 -38 -352q-1 -16 1 -48t1 -48q-2 -37 -31 -66t-66 -29q-29 0 -45.5 19.5t-15.5 46.5q2 42 19 119q20 89 23 116q26 191 31 301q3 48 0 63q-6 30 -6 43
q2 40 34.5 72.5t71.5 32.5q43 0 53 -44q222 -249 363 -486q25 191 32 329q2 47 0 59q-7 34 -6 46q2 37 31 69.5t66 32.5q61 0 58 -67q-1 -21 -12 -74q-12 -61 -15 -78q-37 -261 -45 -418z" />
    <glyph glyph-name="O" unicode="O" horiz-adv-x="828" 
d="M797 455q-9 -180 -130 -316q-129 -142 -306 -142q-147 0 -237 112q-84 106 -77 253q9 181 129 317q128 143 307 143q148 0 237 -113q84 -106 77 -254zM677 467q4 86 -45 143t-134 57q-126 0 -227.5 -99t-108.5 -225q-4 -86 45.5 -143t135.5 -57q127 0 227 98.5t107 225.5
z" />
    <glyph glyph-name="P" unicode="P" horiz-adv-x="664" 
d="M182 250q-5 -51 -7 -77q0 -14 1 -42t0 -42q-2 -39 -28.5 -70t-64.5 -31q-66 0 -63 66q2 29 16 85q15 60 18 82q29 215 38 389q1 15 -3 44.5t-3 44.5q1 38 32.5 69.5t69.5 31.5q13 0 21 -3q97 30 176 30q112 0 195 -65q92 -71 87 -181q-8 -163 -183 -254
q-132 -69 -302 -77zM230 647q-16 -92 -31 -233q78 0 165 26q103 30 154 87q29 31 30 59q2 44 -57 64q-42 14 -105 14q-70 0 -156 -17z" />
    <glyph glyph-name="Q" unicode="Q" horiz-adv-x="822" 
d="M687 29q-1 -38 -32 -73.5t-69 -35.5q-53 0 -59 72q-13 17 -21 37q-75 -33 -154 -33q-147 0 -234 117q-79 107 -72 256q9 175 130 310q127 142 300 142q146 0 235 -113q84 -107 77 -254q-10 -196 -149 -332q11 -14 29 -36q21 -31 19 -57zM490 667q-124 0 -223.5 -98.5
t-106.5 -222.5q-4 -89 43 -146q49 -59 136 -59q57 0 113 26q-25 65 -69 167q-33 76 -32 115q5 91 61 91q43 0 58 -61q27 -115 95 -234q98 95 105 226q4 84 -46.5 140t-133.5 56z" />
    <glyph glyph-name="R" unicode="R" horiz-adv-x="686" 
d="M538 19q-25 0 -59 34q-81 80 -288 186q-5 -42 -6 -68q-1 -14 1 -40.5t1 -40.5q-2 -39 -29 -70t-65 -31q-66 0 -63 66q2 29 16.5 86t17.5 81q30 211 39 390q1 15 -3 43.5t-3 43.5q1 38 32.5 69.5t69.5 31.5q9 0 17 -2q92 27 169 27q114 0 199 -62q98 -70 93 -182
q-4 -75 -57 -147q-78 -106 -245 -144l75 -42q66 -34 98 -40q67 -12 63 -91q-1 -33 -18 -62q-21 -36 -55 -36zM245 665q-19 -100 -35 -253q81 1 166 28q102 31 153 89q29 32 30 62q3 48 -62 71q-48 16 -115 16q-63 0 -137 -13z" />
    <glyph glyph-name="S" unicode="S" horiz-adv-x="733" 
d="M696 260q-6 -130 -164 -212q-131 -67 -270 -67q-211 0 -205 119q2 34 27.5 53.5t58.5 19.5q23 0 84 -30q21 -10 77 -10q79 0 153 23q98 30 101 81q1 11 -2 20q-10 42 -149 89q-53 17 -196 61q-162 51 -157 151q3 61 39.5 110t93.5 74q205 93 361 93q47 0 80 -36.5
t31 -82.5q-2 -36 -28.5 -64.5t-61.5 -28.5q-26 0 -64 26t-62 26q-50 0 -128 -19q-95 -23 -97 -52q-1 -34 90 -60q397 -117 388 -284z" />
    <glyph glyph-name="T" unicode="T" horiz-adv-x="659" 
d="M593 667q-16 0 -49 4t-48 4q-14 0 -41.5 -1t-33.5 -1q-46 -233 -59 -478q-1 -18 0.5 -53t0.5 -53q-2 -38 -30.5 -67t-66.5 -29q-28 0 -45 19t-15 47q2 45 18 118q20 97 23 117q26 196 32 304q1 26 -4 68q-45 -2 -122 -11l-60 -7q-52 0 -49 68q4 72 54 78q51 6 134 9
l134 5q35 1 91 7t90 14q18 4 28 4q40 0 69.5 -28t28.5 -67q-4 -71 -80 -71z" />
    <glyph glyph-name="U" unicode="U" horiz-adv-x="704" 
d="M613 184q-1 -13 0 -40t1 -40q-2 -38 -32 -66.5t-68 -28.5q-31 0 -45 22.5t-12 36.5l-164 -47q-121 -34 -178 -34q-53 0 -72 39q-13 26 -10 79q6 129 49 429l16 113q0 8 -0.5 26.5t-0.5 27.5q3 42 32.5 81.5t71.5 39.5q56 0 53 -59q-1 -17 -9 -43q-57 -196 -70 -443
q-5 -105 13 -114q5 -3 17 -3q55 0 143 24q29 8 140 38q33 215 42 390q2 47 -1 62q-5 30 -5 45q2 38 32 70t67 32q63 0 60 -66q-1 -30 -11 -77q-6 -32 -15 -76q-36 -245 -44 -418z" />
    <glyph glyph-name="V" unicode="V" horiz-adv-x="652" 
d="M657 735q-1 -22 -24 -58q-65 -103 -176 -328q-35 -72 -61 -129q-38 -82 -52 -131q-27 -87 -112 -87q-63 0 -59 53q-6 16 -12 84l-8 91q-54 347 -91 420q-21 42 -20 69q2 35 26.5 65.5t59.5 30.5q14 0 29 -7q30 -14 38 -79q3 -24 9 -85q29 -213 73 -393q181 337 198 424
q10 49 40 80q33 36 81 36q25 0 43.5 -16t17.5 -40z" />
    <glyph glyph-name="W" unicode="W" horiz-adv-x="952" 
d="M808 110q-2 -43 -35 -71t-75 -28q-58 0 -59 56q-95 172 -182 474l-237 -449q0 -33 -25.5 -65t-61.5 -32q-32 0 -47 22.5t-13 52.5q1 15 4.5 42.5t4.5 40.5q5 94 2 259q-3 194 -17 242q-11 37 -10 58q2 35 28.5 67t61.5 32q62 0 58 -85q-1 -10 -2.5 -27t-2.5 -25
q-7 -145 1 -336q20 33 81.5 159.5t97.5 186.5q31 52 38 62q33 45 61 45q71 0 97 -105q5 -18 19 -70l48 -184q26 -102 54 -152q13 53 45 218q26 132 28 168q0 7 -0.5 21.5t-0.5 21.5q2 40 35.5 72.5t73.5 32.5q27 0 45 -17.5t17 -44.5q-1 -25 -17 -79l-24 -81
q-80 -270 -91 -482z" />
    <glyph glyph-name="X" unicode="X" horiz-adv-x="644" 
d="M635 750q-1 -26 -34 -65q-60 -73 -205 -290q16 -29 66 -119q21 -29 63 -89q46 -67 44 -97q-1 -32 -19 -56t-50 -24q-17 0 -32 6q-24 9 -57 85q-21 50 -42 99q-15 27 -48 85l-60 -90q-17 -32 -51 -95q-52 -94 -125 -94q-63 0 -60 55q1 22 67 104l81 102q29 45 85 129
q1 -1 -65 117q-15 26 -55 76q-34 42 -42 52q-25 38 -24 67v5q2 34 20.5 58.5t52.5 24.5q46 0 115 -136q27 -55 73 -149l56 86q45 69 54 96q35 110 129 110q66 0 63 -53z" />
    <glyph glyph-name="Y" unicode="Y" horiz-adv-x="720" 
d="M729 753q-1 -26 -63 -109q-27 -33 -77 -101q-33 -48 -168 -250q-7 -68 -9 -104q-1 -13 0.5 -40t0.5 -40q-2 -40 -30 -70t-67 -30q-28 0 -45 19t-16 46q1 20 12 54q14 43 29 151q-143 277 -205 343q-44 46 -42 88q2 36 26.5 62.5t59.5 26.5q54 0 81 -66q39 -93 151 -292
l82 125q68 103 77 131q36 111 141 111q24 0 44 -15t18 -40z" />
    <glyph glyph-name="Z" unicode="Z" horiz-adv-x="615" 
d="M218 148q55 3 122 11q14 2 59 12q40 9 62 9q34 0 59.5 -28.5t24.5 -62.5q-2 -35 -27 -55.5t-60 -20.5q-19 0 -56 4t-55 4q-57 0 -142 -11q-125 -16 -146 -16h-5q-42 0 -39 59q2 49 57 108q26 28 81 105q75 105 151 209q96 140 120 199q-50 0 -126 -7q-8 -1 -84 -12
q-55 -8 -85 -8q-46 0 -44 54q5 86 64 92q2 0 176 10q107 6 174 25q22 6 37 6q34 0 58.5 -29t22.5 -62q-1 -28 -49 -92q-21 -27 -62 -81q-190 -259 -288 -422z" />
    <glyph glyph-name="bracketleft" unicode="[" horiz-adv-x="456" 
d="M533 854q-3 -69 -89 -69q-20 0 -58.5 3.5t-57.5 3.5q-23 0 -120 -20q-20 -112 -50 -404q-25 -245 -27 -289q-3 -45 -2 -71q37 -6 60 -6q24 0 72 16.5t75 16.5q36 0 67 -23q35 -27 33 -64q-2 -44 -50 -61q-21 -8 -47 -8q-18 0 -55 3.5t-55 3.5q-24 0 -75 -12.5t-78 -12.5
q-17 0 -51 10q-53 17 -50 68q0 18 10 51q13 43 40 272q35 305 42 448q3 49 0 59q-6 27 -5 42q2 27 16 49q2 29 32 47q24 16 55 16q22 0 62 -8t60 -8q24 0 72 18.5t75 18.5q38 0 69.5 -26t29.5 -64z" />
    <glyph glyph-name="backslash" unicode="\" horiz-adv-x="638" 
d="M514 -4q-72 0 -96 81q-18 59 -114 237q-126 237 -207 356q-29 43 -27 77q3 65 69 65q88 0 111 -114q12 -60 130 -277q117 -213 163 -265q47 -54 46 -90q-4 -70 -75 -70z" />
    <glyph glyph-name="bracketright" unicode="]" horiz-adv-x="575" 
d="M577 862q-1 -15 -11 -50q-14 -47 -40 -266q-34 -283 -42 -444q-3 -59 -1 -70q6 -29 5 -41q-1 -26 -15 -49q-3 -30 -34 -48q-25 -14 -56 -14q-22 0 -63 7.5t-61 7.5q-21 0 -68 -18t-73 -18q-38 0 -70.5 26t-30.5 64q2 35 36 54q27 14 62 14q19 0 55.5 -3t54.5 -3
q25 0 117 18q22 128 50 405q26 251 28 295q2 42 1 66q-37 6 -60 6t-71 -18t-75 -18q-37 0 -69.5 25.5t-30.5 63.5q2 43 50 61q23 9 47 9q19 0 55 -3.5t54 -3.5q25 0 75.5 13t77.5 13q17 0 52 -11q53 -18 51 -70z" />
    <glyph glyph-name="asciicircum" unicode="^" horiz-adv-x="610" 
d="M536 664q-17 0 -49.5 3.5t-48.5 3.5q-17 0 -40 -1q-34 -185 -46 -428q-3 -59 0 -93q135 17 151 17q24 0 33 -24.5t8 -44.5q-4 -72 -53 -77q-15 -1 -175 -10q-104 -6 -171 -24q-17 -4 -29 -4q-40 0 -69.5 27.5t-27.5 66.5q4 72 81 72q17 0 49 -3.5t48 -3.5h18q5 24 19 138
q18 151 23 262q5 95 -1 113l-2 5q-6 -1 -55 -8q-43 -6 -66 -6q-47 0 -43 71t55 75q15 1 174 9q100 5 171 25q16 4 30 4q40 0 69 -27t27 -67q-4 -71 -80 -71z" />
    <glyph glyph-name="underscore" unicode="_" horiz-adv-x="875" 
d="M691 -110q-29 0 -87.5 3t-87.5 3q-159 0 -296 -26q-32 -6 -55 -6q-38 0 -80 21q-52 26 -50 65t49 57q33 13 72 13q32 0 96.5 -6.5t95.5 -6.5q140 0 234 26q57 15 94 15q42 0 86 -20q57 -26 55 -66q-4 -72 -126 -72z" />
    <glyph glyph-name="grave" unicode="`" horiz-adv-x="350" 
d="M151 516q-66 0 -63 55q1 25 21 51q26 35 34 49q8 16 19 84q9 60 35 76q29 19 67 19q80 0 77 -57q-1 -19 -16 -41q-43 -67 -49 -79q-19 -36 -30 -85q-7 -34 -34 -53t-61 -19z" />
    <glyph glyph-name="a" unicode="a" horiz-adv-x="660" 
d="M461 23q-130 -37 -249 -32.5t-177 101.5q-42 67 -3.5 157.5t104.5 140.5q100 63 214 64q41 10 170 7q0 56 -25 72q-29 18 -75 17q-40 -1 -107.5 -7t-104.5 -25q-39 -30 -57 -30q-58 11 -54 65t38 74q66 39 143.5 51.5t146.5 14.5q103 3 160 -42q66 -50 59 -153
q-2 -23 -17 -84.5t-26 -226.5q-2 -13 -1.5 -39.5t0.5 -38.5q13 -78 -16 -92.5t-79 -26.5q-36 23 -44 33zM496 323q-193 23 -284 -26q-38 -21 -56.5 -53t6.5 -72.5t124 -55.5q48 -10 173 29l16 72q16 89 21 106z" />
    <glyph glyph-name="b" unicode="b" horiz-adv-x="671" 
d="M650.5 376.5q0.5 -179.5 -211.5 -316.5q-103 -59 -304 -62q-19 -10 -40 -10q-65 0 -62 63q2 43 19 118q21 90 24 117q24 186 28 270q4 69 1 86q-6 32 -5 48q2 38 33.5 69t68.5 28t46.5 -41.5t1 -55.5t-14.5 -68q196 36 305.5 -15t110 -230.5zM214 494q-20 -245 -23 -303
q-1 -28 -1 -43q80 0 142 21q100 25 150 78t47.5 142.5t-64.5 107.5q-43 13 -103 13q-56 0 -148 -16z" />
    <glyph glyph-name="c" unicode="c" horiz-adv-x="658" 
d="M641 510q-1 -30 -24.5 -56t-57.5 -26q-30 0 -53 17q-27 40 -23 75q4 6 2 21q-30 22 -78 22q-108 0 -184 -101q-63 -78 -68 -174q-3 -67 35 -113q40 -47 106 -66q32 0 70.5 13t61.5 33q67 91 117 91q27 0 47.5 -21t19.5 -46q-2 -28 -42 -73q-116 -127 -259 -127
q-134 0 -215 108q-71 97 -65 224q8 144 102 259q107 130 257 130q73 0 129 -32q39 -23 92 -81q32 -38 30 -77z" />
    <glyph glyph-name="d" unicode="d" horiz-adv-x="642" 
d="M488 647q1 62 20.5 101.5t54 51t61 -15t19.5 -66.5q-2 -15 -5 -69q-8 -20 -17 -71q-14 -87 -40 -274q-3 -27 -2 -116q0 -74 -7 -118q-10 -61 -71 -75q-22 -6 -39 2q-203 -44 -295 -6q-176 52 -149 282.5t146.5 303t323.5 70.5zM332 522q-42 -14 -89 -38
q-70 -34 -87 -132.5t13.5 -160t122.5 -65.5q57 -7 142 12q4 21 15 148q24 151 33 235q-96 14 -150 1z" />
    <glyph glyph-name="e" unicode="e" horiz-adv-x="642" 
d="M148 374q6 -1 27 -1q50 0 145.5 7.5t141.5 23.5l16 8q0 -1 2 3q14 66 -16.5 107.5t-65 46t-126.5 -26.5t-113 -122q-11 -45 -11 -46zM134 234q-3 -60 29 -81q28 -19 74 -19q40 0 117.5 18.5t115.5 37.5q39 25 55 25q29 0 45 -27q12 -22 11 -48q-3 -46 -36 -65
q-65 -36 -153 -62t-157 -26q-103 0 -161 46q-67 52 -62 154q1 22 3 78t10.5 113t33 125t106 124t212.5 71q114 0 204 -113q45 -62 25 -168q-5 -24 -10 -63.5t-45 -56.5q-80 -33 -186.5 -46.5t-190.5 -13.5q-24 0 -32 -1.5z" />
    <glyph glyph-name="f" unicode="f" horiz-adv-x="603" 
d="M179 406l69 3q86 7 160 27q16 4 34 4q36 0 65 -30.5t27 -66.5q-3 -69 -78 -69q-16 0 -47.5 3t-46.5 3q-44 0 -198 -14q-2 -36 -4 -78q-6 -116 -4 -147.5t1 -47.5q-2 -36 -32 -65t-66 -29q-27 0 -45 18t-17 45q1 17 16 56q19 54 36 200q21 132 22 149q15 314 160.5 377.5
t268.5 63.5q43 0 75 -33t30 -75q-1 -33 -27 -59t-60 -26q-25 0 -58.5 21.5t-52.5 21.5q-45 0 -92.5 -10.5t-82 -62t-50.5 -165.5q-2 -14 -3 -14z" />
    <glyph glyph-name="g" unicode="g" horiz-adv-x="662" 
d="M365 521q-63 -15 -109 -41q-69 -56 -90 -198q-10 -58 21 -95t121 -30t174 28q15 157 33 357q-79 -4 -150 -21zM460 40h11q-175 -57 -310 -1q-142 58 -117 218q32 203 138 297q97 88 209 116q81 19 172 11q9 6 22 10q40 9 66.5 -17.5t20.5 -66.5q-3 -16 -13 -47.5
t-13 -46.5q-28 -179 -44 -425q-3 -24 -5 -51l-1 -16q-12 -107 -149 -174q-118 -57 -243 -57q-194 0 -189 108q2 32 27 50.5t60 18.5q20 -11 74 -36q16 -8 65 -8q69 0 133 19q80 23 86 98z" />
    <glyph glyph-name="h" unicode="h" horiz-adv-x="653" 
d="M104 496q1 12 4.5 77t-8.5 82t-11 37.5t31 59t69 38.5q31 0 45 -22t3 -193q178 104 304 107q53 0 73 -39q12 -26 10 -79q-6 -119 -33 -289l-15 -113q-1 -8 -0.5 -26.5t0.5 -27.5q-2 -42 -32 -81.5t-72 -39.5q-55 0 -52 59q1 17 8 43q58 195 54 313q5 105 -13 114
q-5 3 -17 3q-54 0 -113 -25t-133 -75q-14 -48 -23 -222q-2 -47 1 -62q6 -30 5 -45q-2 -38 -31.5 -70t-66.5 -32q-64 0 -61 66q2 30 11 77q7 32 15 76q30 116 48 289z" />
    <glyph glyph-name="i" unicode="i" horiz-adv-x="277" 
d="M187 188q-1 -16 1 -47.5t1 -47.5q-2 -36 -32 -65t-66 -29q-27 0 -45 18t-17 45q1 17 16 56q19 55 31 101q21 131 22 148q7 154 4 167q-7 33 -7 47q2 38 34.5 69.5t70.5 31.5q60 0 57 -70q-1 -15 -5 -31q-59 -259 -65 -393zM194 726q-36 0 -61 25t-18 61q5 34 32.5 61.5
t61.5 27.5q36 0 60.5 -28.5t18.5 -65.5q-5 -32 -33 -56.5t-61 -24.5z" />
    <glyph glyph-name="j" unicode="j" horiz-adv-x="704" 
d="M612 513l-20 -181q-17 -141 -43 -224q-35 -109 -108 -174q-81 -73 -189 -73q-102 0 -178 94q-40 49 -49 121q-6 45 -2 131q4 64 58 64q23 0 42.5 -20.5t18.5 -43.5q0 -9 -3.5 -23.5t-3.5 -21.5q-3 -67 35 -111.5t94 -44.5q52 0 96 24q50 27 62 73q41 151 53 394l1 20
q-41 0 -97 -10q-91 -14 -110 -14h-5q-49 0 -46 69q4 72 56 78q17 2 71 5q127 6 217 29q17 4 29 4q41 0 69 -29t26 -69q-3 -67 -74 -67zM562 705q-36 0 -61 25t-18 61q5 34 32 61.5t61 27.5q37 0 61.5 -28.5t17.5 -65.5q-5 -32 -33 -56.5t-60 -24.5z" />
    <glyph glyph-name="k" unicode="k" horiz-adv-x="608" 
d="M564 103q-1 -29 -20 -58q-24 -36 -59 -36q-25 0 -59 35q-56 60 -246 169q-2 -22 -4 -49q0 -13 1 -43t0 -43q-2 -37 -27.5 -64.5t-65.5 -27.5q-29 0 -45.5 17.5t-15.5 43.5q2 31 18 112q18 79 21 101q23 171 30 309q2 41 -1 53q-5 25 -4 39q2 37 31.5 66t69.5 29
q58 0 54 -67q-1 -25 -11 -63q-10 -44 -12 -58q-7 -52 -19 -169q198 172 229 228q32 57 78 64q7 1 21 1q29 0 52 -14q27 -18 25 -47q-1 -33 -45 -64q-110 -78 -294 -259q22 -13 111.5 -65t129.5 -61q60 -14 57 -79z" />
    <glyph glyph-name="l" unicode="l" horiz-adv-x="255" 
d="M176 188q-1 -16 1 -47.5t1 -47.5q-2 -36 -32 -65t-66 -29q-27 0 -45 18t-17 45q1 17 16 56q19 54 41 235q19 157 22 224q3 54 0 67q-8 33 -7 47q2 38 34 69.5t70 31.5q61 0 57 -70q0 -15 -4 -32q-57 -209 -71 -502z" />
    <glyph glyph-name="m" unicode="m" horiz-adv-x="908" 
d="M546 463q-8 -84 -25 -188l-15 -113q-1 -8 -0.5 -26.5t0.5 -27.5q-2 -42 -32 -81.5t-72 -39.5q-55 0 -52 59q1 17 8 43q58 195 53 303q6 115 -12 124q-5 3 -17 3q-23 0 -62 -24.5t-114 -85.5q-14 -38 -23 -212q-2 -47 1 -62q6 -30 5 -45q-2 -38 -31.5 -70t-66.5 -32
q-64 0 -61 66q2 30 11 77q7 32 15 76q30 115 28 278q1 13 -0.5 40t-0.5 40q2 38 31.5 76.5t68.5 38.5q32 0 46 -22.5t8 -88.5q137 110 234 113q53 0 73 -39q11 -22 11 -47q137 83 246 86q53 0 73 -39q12 -26 10 -79q-7 -129 -33 -289l-15 -113q-1 -8 -0.5 -26.5t0.5 -27.5
q-2 -42 -32 -81.5t-72 -39.5q-55 0 -52 59q1 17 8 43q58 195 53 303q6 115 -12 124q-5 3 -17 3q-54 0 -107 -24q-28 -14 -59 -32z" />
    <glyph glyph-name="n" unicode="n" horiz-adv-x="617" 
d="M68 495q1 13 0 40t-1 40q2 38 32 76.5t69 38.5q31 0 45 -22.5t8 -91.5q179 113 305 116q53 0 72 -39q13 -26 10 -79q-6 -129 -33 -299l-15 -113q-1 -8 -0.5 -26.5t0.5 -27.5q-2 -42 -32 -81.5t-72 -39.5q-55 0 -52 59q1 17 8 43q58 195 54 313q5 107 -14 125q-4 2 -15 2
q-54 0 -113 -25t-133 -75q-15 -58 -24 -232q-2 -47 1 -62q6 -30 5 -45q-2 -38 -31.5 -70t-66.5 -32q-64 0 -61 66q2 30 11 77q7 32 15 76q30 115 28 288z" />
    <glyph glyph-name="o" unicode="o" horiz-adv-x="745" 
d="M729 381q-7 -154 -121 -270q-120 -122 -286 -122q-138 0 -223 96q-80 91 -74 218q8 155 120 272q119 122 287 122q139 0 223 -97q81 -91 74 -219zM601 391q3 68 -39.5 112.5t-116.5 44.5q-112 0 -201.5 -80t-94.5 -181q-4 -67 39 -112t118 -45q113 0 201.5 80t93.5 181z
" />
    <glyph glyph-name="p" unicode="p" horiz-adv-x="671" 
d="M177 30l-3 -18q0 -13 1 -41t0 -42q-2 -39 -28.5 -70t-64.5 -31q-66 0 -63 66q2 29 16 85q15 60 19 112q30 215 39 389q0 15 -4 44.5t-3 44.5q2 38 33 69.5t70 31.5q13 0 21 -3q96 30 176 30q111 0 195 -65q92 -71 82 -271q-8 -163 -161.5 -243t-324.5 -88zM232 528
q-23 -213 -38 -354q78 0 165 26q104 30 142.5 59.5t41.5 86.5q8 164 -51 184q-42 14 -105 14q-70 0 -155 -16z" />
    <glyph glyph-name="q" unicode="q" horiz-adv-x="662" 
d="M158.5 40q-139.5 57 -113.5 217q31 203 138 297q97 88 209 116q80 19 171 11q10 6 23 10q40 9 66.5 -17.5t19.5 -66.5q-3 -16 -13 -47.5t-12 -46.5q-28 -179 -45 -425q-6 -53 -4 -112q2 -54 -2 -84q-10 -64 -72 -79q-41 -10 -63 17.5t-15 68.5q3 14 10 43.5t8 42.5l1 15
q-167 -17 -306.5 40zM365 511q-62 -15 -110 -51q-67 -37 -89 -178q-9 -58 22 -90.5t120.5 -45t172.5 8.5q16 187 34 377q-79 -4 -150 -21z" />
    <glyph glyph-name="r" unicode="r" horiz-adv-x="610" 
d="M204 505v0q-43 -201 -48 -317q-1 -16 1 -47.5t1 -47.5q-2 -36 -32 -65t-66 -29q-27 0 -45 18t-17 45q1 17 16 56q19 55 31 101q21 131 22 148q7 154 4 167q0 4 -1 7q-6 27 -6 40q2 38 34.5 69.5t70.5 31.5q46 0 52 -30q147 56 270 56q43 0 75 -33t30 -75q-1 -33 -27 -59
t-60 -26q-25 0 -58.5 21.5t-52.5 21.5q-45 0 -113 -15q-30 -7 -50 -15q-23 -9 -31 -23z" />
    <glyph glyph-name="s" unicode="s" horiz-adv-x="664" 
d="M634 207q-5 -104 -149 -175q-118 -57 -243 -57q-194 0 -188 108q1 32 28 51.5t58 -2.5q18 0 74 -26q16 -8 65 -8q69 0 133 19q83 24 85 71q0 8 -1 14q-9 32 -128 69q-47 15 -174 52q-149 45 -144 135q2 53 36 96t85 65q184 69 324 69q43 0 75 -33t30 -75
q-2 -33 -28.5 -59.5t-61.5 -15.5q-23 2 -56 23.5t-52 21.5q-45 0 -113 -17q-80 -9 -90 -43t83 -67q359 -69 352 -216z" />
    <glyph glyph-name="t" unicode="t" horiz-adv-x="497" 
d="M275 574q125 5 141 8q58 9 59 -69q-19 -56 -66 -68l-6 -2q-20 -4 -68 -1.5t-98 -9.5q-22 -58 -34 -203q-3 -44 37 -70q35 -23 80 -23t80 12.5t58.5 -22t0.5 -92.5q-83 -43 -177.5 -43t-150.5 74q-52 67 -50 176q0 52 15 190q-78 -16 -58 53q4 71 37.5 75.5t53.5 4.5
q0 14 18 97q-2 38 37 69t76 31q63 0 45 -72q-4 -15 -11 -30z" />
    <glyph glyph-name="u" unicode="u" horiz-adv-x="655" 
d="M573 184q-1 -13 0 -40t1 -40q-2 -38 -32 -76.5t-69 -38.5q-31 0 -45 22.5t-8 91.5q-179 -113 -305 -116q-53 0 -72 39q-13 26 -10 79q6 129 33 299l15 113q1 8 0.5 26.5t-0.5 27.5q2 42 32 81.5t72 39.5q55 0 52 -59q-1 -17 -8 -43q-58 -195 -54 -323q-5 -105 12 -114
q6 -3 17 -3q54 0 113 25t133 75q15 58 24 232q2 47 -1 62q-6 30 -5 45q2 38 31.5 70t66.5 32q64 0 61 -66q-2 -30 -11 -77q-7 -32 -15 -76q-30 -115 -28 -288z" />
    <glyph glyph-name="v" unicode="v" horiz-adv-x="614" 
d="M114 706q43 0 78 -63q4 -23 10 -49l10 -56l63 -313l164 342q13 35 27 74q30 48 86 48q31 0 49.5 -20t16.5 -48q-1 -27 -32 -72q-34 -48 -131 -237q-88 -184 -97 -228q-8 -43 -21 -66q-20 -25 -61 -32q-12 -2 -25 -2q-51 0 -62 53q-7 27 -8 49q-2 32 -16 97
q-36 129 -81 285q-10 33 -40 144q1 72 70 94z" />
    <glyph glyph-name="w" unicode="w" horiz-adv-x="861" 
d="M66 587q1 35 29.5 60.5t61.5 25.5q68 0 64 -69q0 -12 -8 -52q-4 -25 -6 -54q-5 -108 -4 -191q5 9 64 121q58 115 91 167q30 46 35 56q32 42 60 42q50 0 76 -44q6 -12 17 -48l70 -203q24 -91 35 -124q47 195 52 305q2 37 29 65t65 28q25 0 41 -16.5t15 -39.5
q-1 -16 -20 -73l-25 -76q-23 -95 -43 -202q-20 -105 -22 -143q0 -7 1 -20t0 -21q-2 -38 -32.5 -69t-69.5 -31q-53 0 -50 54q-43 117 -86 262q-21 66 -69 197l-219 -426q-2 -31 -29.5 -62t-64.5 -31q-66 0 -62 72q1 25 4.5 71.5t5.5 69.5q13 273 -3 373q-4 17 -3 26z" />
    <glyph glyph-name="x" unicode="x" horiz-adv-x="639" 
d="M629 638q-2 -24 -37 -61q-59 -62 -186 -243q12 -21 62 -97q22 -26 63 -77q48 -61 46 -90q-1 -31 -21 -55t-55 -24q-19 0 -34 6q-28 9 -62 78q-20 43 -42 94q-14 24 -40 64l-51 -67q-18 -38 -51 -92q-53 -86 -130 -86q-71 0 -68 57q1 22 78 97q26 29 79 86q27 39 80 122
q-64 68 -72 79q-15 23 -55 65q-33 36 -42 46q-27 35 -25 64v4q2 33 22.5 57t57.5 24q51 0 121 -131q27 -48 66 -119l47 65q44 58 52 79q37 112 136 112q76 0 61 -57z" />
    <glyph glyph-name="y" unicode="y" horiz-adv-x="660" 
d="M64 375l16 125q1 9 0.5 29.5t0.5 30.5q2 44 31.5 88t72.5 44q55 0 52 -64q-1 -19 -9 -47q-52 -195 -59 -286.5t17 -112.5q32 -38 116.5 -31t169.5 28q4 43 15 113.5t15 152.5q3 56 0 74q-6 35 -5 53q2 44 32 81.5t68 37.5q63 0 59 -76q-2 -36 -11 -92q-7 -38 -16 -90
q-13 -57 -21 -142.5t-16 -202.5q-3 -24 -5 -51l-1 -16q-12 -107 -149 -174q-108 -57 -233 -57q-194 0 -189 108q2 32 28 51t58 8q19 0 75 -31q16 -8 65 -8q68 0 122 18q82 42 87 104h11q-165 -57 -300 -1q-127 50 -115.5 168t18.5 168z" />
    <glyph glyph-name="z" unicode="z" horiz-adv-x="544" 
d="M210 132q38 2 98 9q12 1 51 10q36 7 56 7q33 0 57.5 -25.5t22.5 -56.5q-1 -32 -25 -51t-57 -19q-17 0 -50 3.5t-49 3.5q-51 0 -126 -9q-110 -14 -129 -14h-5q-42 0 -39 55q2 44 51 95q24 24 72 89q67 88 133 176q85 118 102 160q-36 0 -103 -6q-7 -1 -74 -10
q-49 -7 -76 -7q-46 0 -44 51q4 78 61 83q3 0 157 9q93 5 152 21q21 5 35 5q32 0 55 -26t22 -56q-1 -26 -45 -82q-19 -22 -54 -68q-168 -219 -249 -347z" />
    <glyph glyph-name="braceleft" unicode="{" horiz-adv-x="813" 
d="M829 675q-3 -66 -72 -66q-27 0 -64 20q-148 80 -285 100q-42 7 -68 31q-30 27 -28 69q1 31 22.5 50t51.5 19q31 0 82 -34q117 -76 232 -81q51 -2 88 -27q44 -30 41 -81zM585 348q-24 0 -72 2.5t-71 2.5q-134 0 -246 -25q-29 -6 -50 -6q-36 0 -69 23q-39 25 -37 62t39 57
q29 15 65 15q28 0 81 -7t79 -7q106 0 190 27q45 14 77 14q40 0 75 -21q44 -26 42 -66q-3 -71 -103 -71zM372 -83q-31 0 -50 19t-17 50q4 76 88 102q130 39 278 146q42 30 76 30q68 0 64 -69q-4 -90 -122 -114q-119 -24 -226 -117q-55 -47 -91 -47z" />
    <glyph glyph-name="bar" unicode="|" horiz-adv-x="300" 
d="M212 188q-1 -16 1 -47.5t1 -47.5q-2 -36 -32 -65t-66 -29q-27 0 -45 18t-17 45q1 17 16 56q19 54 41 235q19 157 23 244q3 54 0 67q-8 33 -7 47q2 38 34 69.5t70 31.5q61 0 57 -70q0 -15 -4 -31q-58 -229 -72 -523z" />
    <glyph glyph-name="braceright" unicode="}" horiz-adv-x="772" 
d="M93 549q-29 0 -45.5 20t-14.5 47q4 92 119 117q120 25 226 118q54 46 90 46q31 0 50 -19.5t17 -50.5q-4 -76 -88 -103q-135 -42 -276 -144q-43 -31 -78 -31zM700 335q-27 0 -79.5 6t-77.5 6q-116 0 -196 -26q-48 -15 -78 -15q-39 0 -77 23q-43 28 -41 67q1 38 45 56
q31 13 68 13q23 0 69.5 -3t68.5 -3q127 0 244 27q24 5 47 5q37 0 70 -23q40 -26 38 -64q-3 -69 -101 -69zM529 -17q-1 -28 -23 -47t-49 -19q-21 0 -95 38q-82 44 -100 50q-21 7 -106 18q-72 9 -104 32q-43 30 -40 83q1 29 22.5 46.5t49.5 17.5q31 0 65 -18q155 -81 285 -100
q99 -14 95 -101z" />
    <glyph glyph-name="asciitilde" unicode="~" horiz-adv-x="645" 
d="M616 418q-1 -30 -35.5 -64t-64.5 -40q-9 -2 -21 -2q-17 0 -37 5q-32 6 -128 48q-46 20 -79 20q-29 0 -47 -17q-45 -43 -67 -45q-30 -2 -55 25t-24 56q2 38 41 61q18 12 65 28q23 9 50 9q37 0 83 -16q75 -25 118 -40q10 -4 19 -4q28 0 59 28q30 28 57 28q18 0 34 -14
q34 -31 32 -66z" />
    <glyph glyph-name="nonbreakingspace" unicode="&#xa0;" 
 />
    <glyph glyph-name="exclamdown" unicode="&#xa1;" horiz-adv-x="363" 
d="M152 515q3 39 31.5 68.5t68.5 28.5q26 0 43.5 -19.5t15.5 -45.5q-1 -18 -21 -61q-22 -48 -44 -156q-20 -97 -25 -161q2 -23 1 -68q-3 -43 -37.5 -74.5t-76.5 -30.5q-63 1 -58 68q0 16 9 39q80 221 93 412zM289 872q36 -1 63 -26t24 -62q-3 -35 -28.5 -61.5t-61.5 -25.5
t-61 30.5t-22 65.5q3 32 28.5 56t57.5 23z" />
    <glyph glyph-name="currency" unicode="&#xa4;" horiz-adv-x="513" 
d="M433 697q-1 0 23 -23q29 -27 28 -61q-2 -23 -18.5 -40t-39.5 -17q-26 0 -60 26q-12 10 -29 24l2 -43q-2 -33 -24.5 -58.5t-55.5 -25.5q-24 0 -37.5 20t-12.5 42q1 23 13 58q-42 -28 -67 -28q-27 0 -47 15q-25 17 -24 45q2 41 46 59q34 8 35 8q-17 6 -33 17q-31 22 -29 65
q3 56 58 56q29 0 57 -25q11 -11 21 -19q-4 32 -4 37q2 30 24.5 57t52.5 27q57 0 53 -64q0 -17 -7.5 -45t-7.5 -19l22 18q25 19 52 19q29 0 50 -14q27 -17 26 -46q-2 -39 -41 -56z" />
    <glyph glyph-name="yen" unicode="&#xa5;" horiz-adv-x="720" 
d="M543 268q-3 -55 -67 -55q-21 0 -63 3l-1 -19l-9 -4q27 11 45 11q28 0 50.5 -21.5t20.5 -49.5q-2 -55 -67 -55q-6 0 -48 3q0 -1 6 -1q-4 -20 -17 -48q-19 -41 -83 -39q-67 2 -55 82v-7q8 1 -16 -5q-20 -5 -33 -5q-26 0 -45 21t-18 47t19 42t43 16q19 0 49 -5q24 -4 25 -4
q3 14 5 29q11 2 -19 -6q-22 -5 -35 -5q-27 0 -46 21t-17 47q1 26 19 42t43 16q24 0 49 -5q-127 245 -187 308q-44 46 -42 88q2 36 26.5 62.5t59.5 26.5q54 0 81 -66q39 -93 151 -292l82 125q68 103 77 131q36 111 141 111q24 0 44 -15t18 -40q-1 -26 -63 -109
q-27 -33 -77 -101q-29 -41 -140 -209q-26 -8 -23 -6q27 11 46 11q28 0 50 -21.5t21 -49.5z" />
    <glyph glyph-name="brokenbar" unicode="&#xa6;" horiz-adv-x="300" 
d="M165 461q-33 0 -45 34q-9 25 -1 52l-5 142q-15 58 1 83q16 22 46.5 38.5t56.5 16.5q62 0 50 -76l-15 -90q-3 -42 8 -88q7 -33 -10 -61q-33 -51 -86 -51zM129 395q35 14 60 14q38 0 48 -34q8 -25 0 -58q-13 -49 -14 -61q-3 -24 -9 -105q-1 -27 -4 -43q-4 -30 -14 -44
q-19 -28 -43 -45q-28 -11 -47 -11q-33 0 -46 30q-9 23 -2 53q22 89 23 97q6 56 7 111q-1 11 -1 21q2 24 15 44q21 34 27 31z" />
    <glyph glyph-name="section" unicode="&#xa7;" horiz-adv-x="541" 
d="M289 1q-110 -9 -149 42q-17 22 -16 40q1 36 40 36q18 0 44 -10q48 -17 57 -17q6 0 12 1q19 2 37 22q7 7 7 17q2 30 -61 85h-13q-91 0 -147 70q-52 65 -47 156q5 109 79 193q40 44 71 59q-53 29 -69 89q-7 26 -6 47q2 47 39 78q50 41 104 46q110 12 151 -42q16 -22 15 -40
q-2 -36 -40 -36q-18 0 -44 10q-50 17 -57 17t-14 -1q-18 -2 -35 -21q-7 -8 -7 -17q-2 -35 75 -100h5q90 0 147 -71q53 -66 48 -156q-5 -110 -81 -193q-37 -40 -64 -54q41 -28 55 -80q8 -26 7 -47q-3 -47 -39 -77q-50 -41 -104 -46zM412 495q2 43 -22 71t-65 28
q-63 0 -113.5 -49t-53.5 -112q-2 -43 22 -70.5t67 -27.5q62 0 112 49t53 111z" />
    <glyph glyph-name="copyright" unicode="&#xa9;" horiz-adv-x="829" 
d="M798 451q-9 -179 -130 -315q-129 -142 -305 -142q-147 0 -237 112q-84 106 -77 253q9 180 130 316q127 143 305 143q147 0 236 -113q85 -107 78 -254zM678 461q5 88 -44.5 145.5t-135.5 57.5q-126 0 -227 -98.5t-108 -224.5q-4 -87 46 -144t137 -57q125 0 225.5 98
t106.5 223zM569 534q11 -17 10 -36q-1 -21 -17 -45.5t-39 -24.5q-33 0 -32 30q1 5 2.5 10.5t1.5 6.5q1 8 -14.5 15.5t-27.5 7.5q-45 0 -94 -40.5t-51 -82.5q-1 -31 28 -59t60 -28q26 0 78.5 32t60.5 32q31 0 29 -40q-2 -51 -63 -91q-55 -38 -105 -38q-75 0 -118 64
q-38 56 -35 132q4 83 60 152q60 76 143 76q75 0 120 -71z" />
    <glyph glyph-name="ordfeminine" unicode="&#xaa;" horiz-adv-x="673" 
d="M577 395q-1 -35 -33 -53q-24 -16 -58 -16q-18 0 -53 2.5t-52 2.5q-111 0 -201 -25q-24 -6 -40 -6h4q4 -50 40 -96q49 -61 111 -71q26 -4 51 -4q87 0 140 49q68 78 117 78q23 0 41.5 -20t17.5 -43q-1 -26 -43 -75q-142 -117 -290 -117q-140 0 -224 120q-76 108 -69 251
q7 138 106 270q106 140 239 164q49 8 89 8q44 0 78 -12q60 -22 105 -90q31 -37 29 -77q-1 -30 -23 -55t-52 -25q-31 0 -52.5 18t-18 46t-24.5 51q-16 13 -50 13q-25 0 -59 -7q-82 -18 -171 -120q-46 -52 -64 -100q6 0 37 -5q42 -7 64 -7q85 0 149 25q37 15 63 15
q36 0 67 -26.5t29 -62.5z" />
    <glyph glyph-name="guillemotleft" unicode="&#xab;" horiz-adv-x="612" 
d="M213 338q9 -8 57 -57q15 -16 46 -47q38 -38 37 -60q-1 -23 -18.5 -40t-39.5 -17q-17 0 -33 13q-20 15 -83 84q-47 51 -89 68q-44 17 -42 51q1 30 41 50q48 22 104 79q19 20 59 60q48 49 75 49q24 0 39.5 -17t14.5 -39q-1 -21 -20 -39q-60 -60 -148 -138zM439 327
q12 -10 57 -57q14 -13 48.5 -49.5t33.5 -57.5q-1 -23 -18 -40t-39 -17q-17 0 -33 13q-21 14 -83 84q-46 51 -90 68q-43 16 -41 51q2 33 42 51q49 22 103 78q19 20 59 61q48 48 76 48q22 0 38 -17t15 -39q-1 -20 -20 -39q-60 -60 -148 -138z" />
    <glyph glyph-name="logicalnot" unicode="&#xac;" horiz-adv-x="962" 
d="M920 379q-4 -66 -74 -65q-32 0 -63 27.5t-28 60.5q1 15 10 35q20 48 19 114q-32 2 -69 3q-39 1 -260 -10q-239 -12 -307 -22q-22 -3 -38 -3q-73 1 -69 61q3 39 45 66q36 24 75 24q17 0 49 -7q14 -3 70 -4q388 -4 547 29q41 8 62 8q68 -1 64 -65q-3 -24 -21 -47l-15 -97
q-1 -17 1.5 -53t1.5 -55z" />
    <glyph glyph-name="minus" unicode="&#xad;" horiz-adv-x="661" 
d="M614 424q-1 -35 -35 -55q-26 -14 -61 -14q-19 0 -56.5 2.5t-55.5 2.5q-117 0 -213 -25q-25 -6 -42 -6q-36 0 -64.5 25t-26.5 60q1 34 28.5 53.5t60.5 19.5q24 0 70 -7t68 -7q90 0 159 25q39 15 66 15q37 0 68 -24q36 -28 34 -65z" />
    <glyph glyph-name="minus" unicode="&#x2212;" horiz-adv-x="661" 
d="M614 424q-1 -35 -35 -55q-26 -14 -61 -14q-19 0 -56.5 2.5t-55.5 2.5q-117 0 -213 -25q-25 -6 -42 -6q-36 0 -64.5 25t-26.5 60q1 34 28.5 53.5t60.5 19.5q24 0 70 -7t68 -7q90 0 159 25q39 15 66 15q37 0 68 -24q36 -28 34 -65z" />
    <glyph glyph-name="registered" unicode="&#xae;" horiz-adv-x="835" 
d="M804 455q-9 -178 -131 -314q-129 -143 -304 -143q-147 0 -238 111q-85 105 -78 252q9 180 130 317q129 144 307 144q147 0 236 -113q85 -107 78 -254zM684 465q4 88 -45 145t-136 57q-125 0 -226 -98.5t-107 -223.5q-5 -86 45 -143.5t135 -57.5q126 0 226.5 97.5
t107.5 223.5zM514 219q-15 0 -35 19q-40 37 -119 77q0 -9 -1 -18q0 -7 0.5 -21t0.5 -21q-2 -48 -55 -48q-29 0 -28 30q1 12 7 31q20 62 27 213q1 8 -1 24.5t-1 24.5q1 22 19.5 37t37.5 10q37 11 72 11q55 0 95 -28q46 -32 43 -87q-3 -54 -53 -92q-40 -30 -72 -37
q6 -3 21 -11q26 -13 42 -16q36 -7 34 -41q-3 -57 -34 -57zM384 508q-7 -36 -14 -102q33 0 83 18q59 22 60 55q2 33 -74 33q-27 0 -55 -4z" />
    <glyph glyph-name="macron" unicode="&#xaf;" horiz-adv-x="365" 
d="M227 187q-1 -16 1 -47.5t1 -47.5q-1 -36 -31.5 -65t-66.5 -29q-27 0 -45 18t-16 45q1 17 15 56q19 54 41 235q19 157 24 244q2 54 -1 67q-7 33 -7 47q2 38 34.5 69.5t70.5 31.5q60 0 57 -70q-1 -15 -5 -31q-57 -229 -72 -523zM129 825q-29 0 -51 20t-21 49q2 29 22 51.5
t49 22.5t50.5 -23t19.5 -52q-1 -26 -22 -47t-47 -21zM326 837q-31 0 -53.5 21t-21.5 51q2 30 23 54t51 24t53 -24.5t21 -54.5q-1 -27 -23.5 -49t-49.5 -22z" />
    <glyph glyph-name="macron" unicode="&#x2c9;" horiz-adv-x="365" 
d="M227 187q-1 -16 1 -47.5t1 -47.5q-1 -36 -31.5 -65t-66.5 -29q-27 0 -45 18t-16 45q1 17 15 56q19 54 41 235q19 157 24 244q2 54 -1 67q-7 33 -7 47q2 38 34.5 69.5t70.5 31.5q60 0 57 -70q-1 -15 -5 -31q-57 -229 -72 -523zM129 825q-29 0 -51 20t-21 49q2 29 22 51.5
t49 22.5t50.5 -23t19.5 -52q-1 -26 -22 -47t-47 -21zM326 837q-31 0 -53.5 21t-21.5 51q2 30 23 54t51 24t53 -24.5t21 -54.5q-1 -27 -23.5 -49t-49.5 -22z" />
    <glyph glyph-name="degree" unicode="&#xb0;" horiz-adv-x="363" 
d="M355 658q-4 -71 -51 -124q-49 -56 -120 -56q-58 0 -93 43.5t-32 100.5q3 71 52 125.5t119 54.5q59 0 93.5 -43.5t31.5 -100.5zM273 659q1 22 -11 35.5t-32 13.5q-33 0 -59.5 -25.5t-28.5 -58.5q-1 -23 11 -36.5t33 -13.5q33 0 59 26t28 59z" />
    <glyph glyph-name="plusminus" unicode="&#xb1;" horiz-adv-x="616" 
d="M594 463q-3 -68 -87 -68q-19 0 -57.5 2t-57.5 2h-11q-1 -10 2 -50.5t2 -60.5q-1 -38 -28.5 -69t-64.5 -31q-31 0 -48 22.5t-16 52.5q2 30 15 73q19 66 16 55q-9 -2 -53 -11q-50 -10 -64 -10q-35 0 -63 24.5t-26 58.5q1 35 27.5 53t60.5 18q21 0 63.5 -6.5t62.5 -6.5h4
q0 8 -7 50t-6 64q2 37 30 71t65 34q33 0 50 -23t16 -54q-2 -26 -13.5 -73.5t-12.5 -53.5l44 13q35 10 59 10q37 0 68.5 -24t29.5 -62zM600 85q-1 -35 -35 -55q-26 -14 -61 -14q-19 0 -56.5 2.5t-55.5 2.5q-117 0 -213 -25q-25 -6 -42 -6q-36 0 -64.5 25t-26.5 60
q1 34 28.5 53.5t60.5 19.5q24 0 70 -7t68 -7q90 0 159 25q39 15 66 15q37 0 68 -24q36 -28 34 -65z" />
    <glyph glyph-name="twosuperior" unicode="&#xb2;" horiz-adv-x="350" 
d="M153 516q-66 0 -63 55q1 25 21 51q26 35 34 49q8 16 19 84q9 60 35 76q29 19 67 19q80 0 77 -57q-1 -19 -16 -41q-43 -67 -49 -79q-19 -36 -30 -85q-7 -34 -34 -53t-61 -19z" />
    <glyph glyph-name="threesuperior" unicode="&#xb3;" horiz-adv-x="350" 
d="M151 516q-66 0 -63 55q1 25 21 51q26 35 34 49q8 16 19 84q9 60 35 76q29 19 67 19q80 0 77 -57q-1 -19 -16 -41q-43 -67 -49 -79q-19 -36 -30 -85q-7 -34 -34 -53t-61 -19z" />
    <glyph glyph-name="acute" unicode="&#xb4;" horiz-adv-x="350" 
d="M151 516q-66 0 -63 55q1 25 21 51q26 35 34 49q8 16 19 84q9 60 35 76q29 19 67 19q80 0 77 -57q-1 -19 -16 -41q-43 -67 -49 -79q-19 -36 -30 -85q-7 -34 -34 -53t-61 -19z" />
    <glyph glyph-name="ch345" unicode="&#xb7;" 
 />
    <glyph glyph-name="ch345" unicode="&#x2219;" 
 />
    <glyph glyph-name="cedilla" unicode="&#xb8;" horiz-adv-x="512" 
 />
    <glyph glyph-name="onesuperior" unicode="&#xb9;" horiz-adv-x="1114" 
d="M1077 449q-4 -70 -50 -123q-49 -55 -119 -55q-58 0 -92.5 43t-31.5 99q3 71 50 123q50 56 119 56q58 0 94 -45q32 -41 30 -98zM996 450q1 22 -11 35.5t-32 13.5q-32 0 -59 -25.5t-28 -58.5q-1 -22 10.5 -35.5t33.5 -13.5q32 0 58 26t28 58zM1059 164q-1 -30 -26 -43.5
t-52 -13.5q-81 0 -81 -1q-33 -2 -58 -2q-29 0 -53 20.5t-22 49.5q1 28 24.5 45t56.5 14q1 -2 51 -5q24 -1 48.5 4t28.5 5q30 0 57.5 -21t25.5 -52zM799 752q-1 -21 -12 -74q-12 -61 -15 -78q-37 -261 -45 -418q-1 -14 0.5 -40.5t0.5 -40.5q-2 -37 -30 -66t-65 -29
q-32 0 -45.5 22t-8.5 48q-191 309 -356 467q-32 -217 -38 -352q-1 -16 1 -48t1 -48q-2 -37 -31 -66t-66 -29q-29 0 -45.5 19.5t-15.5 46.5q2 42 19 119q20 89 23 116q26 191 31 301q3 48 0 63q-6 30 -6 43q2 40 34.5 72.5t71.5 32.5q43 0 53 -44q222 -249 363 -486
q25 191 32 329q2 47 0 59q-7 34 -6 46q2 37 31 69.5t66 32.5q61 0 58 -67z" />
    <glyph glyph-name="ordmasculine" unicode="&#xba;" horiz-adv-x="673" 
d="M577 395q-1 -35 -33 -53q-24 -16 -58 -16q-18 0 -53 2.5t-52 2.5q-111 0 -201 -25q-24 -6 -40 -6h4q4 -50 40 -96q49 -61 111 -71q26 -4 51 -4q87 0 140 49q68 78 117 78q23 0 41.5 -20t17.5 -43q-1 -26 -43 -75q-142 -117 -290 -117q-140 0 -224 120q-76 108 -69 251
q7 138 106 270q106 140 239 164q49 8 89 8q44 0 78 -12q60 -22 105 -90q31 -37 29 -77q-1 -30 -23 -55t-52 -25q-31 0 -52.5 18t-18 46t-24.5 51q-16 13 -50 13q-25 0 -59 -7q-82 -18 -171 -120q-46 -52 -64 -100q6 0 37 -5q42 -7 64 -7q85 0 149 25q37 15 63 15
q36 0 67 -26.5t29 -62.5z" />
    <glyph glyph-name="guillemotright" unicode="&#xbb;" horiz-adv-x="615" 
d="M579 333q-2 -34 -47 -51q-45 -18 -97 -68q-70 -70 -90 -84q-18 -13 -35 -13q-23 0 -38 17t-14 40q1 22 41 60q16 15 51 47q53 50 63 57q-80 78 -133 138q-17 18 -16 39q1 22 17.5 39t39.5 17q27 0 72 -49q17 -20 52 -60q50 -57 95 -79q40 -20 39 -50zM351 322
q-2 -35 -47 -51q-45 -18 -95 -68q-71 -70 -92 -84q-18 -13 -34 -13q-23 0 -38.5 17t-14.5 40q1 21 42 60q19 18 50 47q50 48 64 57q-80 78 -134 138q-17 19 -16 39q1 22 18 39t39 17q28 0 73 -48q17 -22 52 -61q48 -56 95 -78q40 -19 38 -51z" />
    <glyph glyph-name="onequarter" unicode="&#xbc;" horiz-adv-x="724" 
d="M640 663l-21 -201q-17 -141 -43 -224q-35 -109 -108 -174q-81 -73 -189 -73q-112 0 -188 94q-40 49 -49 121q-6 45 -2 131q4 64 58 64q23 0 42.5 -20.5t18.5 -43.5q0 -9 -3.5 -23.5t-3.5 -21.5q-3 -67 35 -111.5t104 -44.5q52 0 96 24q50 27 62 73q41 151 54 414l1 20
q-41 0 -127 -10q-121 -14 -140 -14h-5q-49 0 -46 69q4 72 56 78q17 2 101 5q157 6 247 29q17 4 29 4q41 0 69 -29t26 -69q-3 -67 -74 -67z" />
    <glyph glyph-name="onehalf" unicode="&#xbd;" horiz-adv-x="733" 
d="M696 260q-6 -130 -164 -212q-131 -67 -270 -67q-211 0 -205 119q2 34 27.5 53.5t58.5 19.5q23 0 84 -30q21 -10 77 -10q79 0 153 23q98 30 101 81q1 11 -2 20q-10 42 -149 89q-53 17 -196 61q-162 51 -157 151q3 61 39.5 110t93.5 74q205 93 361 93q47 0 80 -36.5
t31 -82.5q-2 -36 -28.5 -64.5t-61.5 -28.5q-26 0 -64 26t-62 26q-50 0 -128 -19q-95 -23 -97 -52q-1 -34 90 -60q397 -117 388 -284z" />
    <glyph glyph-name="threequarters" unicode="&#xbe;" horiz-adv-x="733" 
d="M696 260q-6 -130 -164 -212q-131 -67 -270 -67q-211 0 -205 119q2 34 27.5 53.5t58.5 19.5q23 0 84 -30q21 -10 77 -10q79 0 153 23q98 30 101 81q1 11 -2 20q-10 42 -149 89q-53 17 -196 61q-162 51 -157 151q3 61 39.5 110t93.5 74q205 93 361 93q47 0 80 -36.5
t31 -82.5q-2 -36 -28.5 -64.5t-61.5 -28.5q-26 0 -64 26t-62 26q-50 0 -128 -19q-95 -23 -97 -52q-1 -34 90 -60q397 -117 388 -284z" />
    <glyph glyph-name="questiondown" unicode="&#xbf;" horiz-adv-x="365" 
d="M227 187q-1 -16 1 -47.5t1 -47.5q-1 -36 -31.5 -65t-66.5 -29q-27 0 -45 18t-16 45q1 17 15 56q19 54 41 235q19 157 24 244q2 54 -1 67q-7 33 -7 47q2 38 34.5 69.5t70.5 31.5q60 0 57 -70q-1 -15 -5 -31q-57 -229 -72 -523zM129 825q-29 0 -51 20t-21 49q2 29 22 51.5
t49 22.5t50.5 -23t19.5 -52q-1 -26 -22 -47t-47 -21zM326 837q-31 0 -53.5 21t-21.5 51q2 30 23 54t51 24t53 -24.5t21 -54.5q-1 -27 -23.5 -49t-49.5 -22z" />
    <glyph glyph-name="Ccaron" unicode="&#x10c;" horiz-adv-x="727" 
d="M580 4q-40 0 -75 67q-4 25 -11 57l-11 67l-80 403l-196 -436q-14 -43 -30 -88q-29 -50 -87 -50q-29 0 -46.5 20.5t-16.5 47.5q2 29 35 79q39 59 140 275q102 222 113 277q9 48 23 74q19 24 61 32q12 2 26 2q48 0 59 -53q8 -31 9 -56q2 -40 19 -120q40 -155 92 -331
q11 -39 45 -170q-2 -75 -69 -97z" />
    <glyph glyph-name="Scaron" unicode="&#x160;" horiz-adv-x="720" 
d="M674 260q-6 -130 -164 -212q-131 -67 -270 -67q-211 0 -205 119q2 34 27.5 53.5t58.5 19.5q23 0 84 -30q21 -10 77 -10q79 0 153 23q98 30 101 81q1 11 -2 20q-10 42 -149 89q-53 17 -196 61q-162 51 -157 151q3 61 39.5 110t93.5 74q205 93 361 93q47 0 80 -36.5
t31 -82.5q-2 -36 -28.5 -64.5t-61.5 -28.5q-26 0 -64 26t-62 26q-50 0 -128 -19q-95 -23 -97 -52q-1 -34 90 -60q397 -117 388 -284zM615 949q-95 -77 -113 -95q-54 -54 -67 -103h-211q2 50 -45 102q-18 19 -116 95q103 -46 144 -46q29 0 57 6q10 2 32 9l40 -80l47 83
q19 -8 30 -11q31 -8 58 -8q39 0 144 48z" />
    <glyph glyph-name="scaron" unicode="&#x161;" horiz-adv-x="720" 
d="M698 260q-6 -130 -164 -212q-131 -67 -270 -67q-211 0 -205 119q2 34 27.5 53.5t58.5 19.5q23 0 84 -30q21 -10 77 -10q79 0 153 23q98 30 101 81q1 11 -2 20q-10 42 -149 89q-53 17 -196 61q-162 51 -157 151q3 61 39.5 110t93.5 74q205 93 361 93q47 0 80 -36.5
t31 -82.5q-2 -36 -28.5 -64.5t-61.5 -28.5q-26 0 -64 26t-62 26q-50 0 -128 -19q-95 -23 -97 -52q-1 -34 90 -60q397 -117 388 -284zM639 949q-95 -77 -113 -95q-54 -54 -67 -103h-211q2 50 -45 102q-18 19 -116 95q103 -46 144 -46q29 0 57 6q10 2 32 9l40 -80l47 83
q19 -8 30 -11q31 -8 58 -8q39 0 144 48z" />
    <glyph glyph-name="Zcaron" unicode="&#x17d;" horiz-adv-x="761" 
d="M219 148q55 3 122 11q14 2 59 12q40 9 62 9q34 0 59.5 -28.5t24.5 -62.5q-2 -35 -27 -55.5t-60 -20.5q-19 0 -56 4t-55 4q-57 0 -142 -11q-125 -16 -146 -16h-5q-42 0 -39 59q2 49 57 108q26 28 81 105q75 105 151 209q96 140 120 199q-50 0 -126 -7q-8 -1 -84 -12
q-55 -8 -85 -8q-46 0 -44 54q5 86 64 92q2 0 176 10q107 6 174 25q22 6 37 6q34 0 58.5 -29t22.5 -62q-1 -28 -49 -92q-21 -27 -62 -81q-190 -259 -288 -422zM684 948q-95 -77 -113 -95q-54 -54 -67 -103h-211q2 50 -45 102q-18 19 -116 95q103 -46 144 -46q29 0 57 6
q10 2 33 9l40 -80l46 83q19 -8 31 -11q30 -8 57 -8q40 0 144 48z" />
    <glyph glyph-name="zcaron" unicode="&#x17e;" horiz-adv-x="761" 
d="M219 148q55 3 122 11q14 2 59 12q40 9 62 9q34 0 59.5 -28.5t24.5 -62.5q-2 -35 -27 -55.5t-60 -20.5q-19 0 -56 4t-55 4q-57 0 -142 -11q-125 -16 -146 -16h-5q-42 0 -39 59q2 49 57 108q26 28 81 105q75 105 151 209q96 140 120 199q-50 0 -126 -7q-8 -1 -84 -12
q-55 -8 -85 -8q-46 0 -44 54q5 86 64 92q2 0 176 10q107 6 174 25q22 6 37 6q34 0 58.5 -29t22.5 -62q-1 -28 -49 -92q-21 -27 -62 -81q-190 -259 -288 -422zM684 948q-95 -77 -113 -95q-54 -54 -67 -103h-211q2 50 -45 102q-18 19 -116 95q103 -46 144 -46q29 0 57 6
q10 2 33 9l40 -80l46 83q19 -8 31 -11q30 -8 57 -8q40 0 144 48z" />
    <glyph glyph-name="tilde" unicode="&#x2dc;" horiz-adv-x="645" 
d="M616 418q-1 -30 -35.5 -64t-64.5 -40q-9 -2 -21 -2q-17 0 -37 5q-32 6 -128 48q-46 20 -79 20q-29 0 -47 -17q-45 -43 -67 -45q-30 -2 -55 25t-24 56q2 38 41 61q18 12 65 28q23 9 50 9q37 0 83 -16q75 -25 118 -40q10 -4 19 -4q28 0 59 28q30 28 57 28q18 0 34 -14
q34 -31 32 -66z" />
    <glyph glyph-name="afii10023" unicode="&#x401;" horiz-adv-x="666" 
d="M497 851q-30 0 -52.5 21t-21.5 51q1 29 22.5 53t50.5 24q30 0 52.5 -24.5t21.5 -53.5q-1 -27 -23.5 -49t-49.5 -22zM272 818q-34 0 -58.5 23t-22.5 56q1 33 24.5 59t56.5 26q32 0 57 -27t24 -59q-2 -30 -26.5 -54t-54.5 -24zM610 424q-3 -69 -80 -69q-16 0 -47.5 3.5
t-46.5 3.5q-50 0 -238 -23q-12 -100 -15 -157q-2 -33 -1 -51l155 8q88 4 161 25q20 5 32 5q34 0 61 -28.5t25 -62.5q-3 -66 -74 -66q-19 0 -55 4t-54 4q-91 0 -295 -22q-23 -16 -49 -16q-67 0 -64 64q2 29 16.5 87t17.5 82q30 212 38 366q2 49 -1 65q-5 30 -4 47q2 40 33 70
t71 30q18 0 29 -7q197 8 313 40q19 4 32 4q35 0 61 -28.5t24 -63.5q-3 -64 -73 -64h-142q-33 0 -200 -19q-15 -73 -25 -171l150 7q41 4 119 26q22 6 35 6q36 0 64.5 -31.5t26.5 -67.5z" />
    <glyph glyph-name="afii10053" unicode="&#x404;" horiz-adv-x="673" 
d="M577 395q-1 -35 -33 -53q-24 -16 -58 -16q-18 0 -53 2.5t-52 2.5q-111 0 -201 -25q-24 -6 -40 -6h4q4 -50 40 -96q49 -61 111 -71q26 -4 51 -4q87 0 140 49q68 78 117 78q23 0 41.5 -20t17.5 -43q-1 -26 -43 -75q-142 -117 -290 -117q-140 0 -224 120q-76 108 -69 251
q7 138 106 270q106 140 239 164q49 8 89 8q44 0 78 -12q60 -22 105 -90q31 -37 29 -77q-1 -30 -23 -55t-52 -25q-31 0 -52.5 18t-18 46t-24.5 51q-16 13 -50 13q-25 0 -59 -7q-82 -18 -171 -120q-46 -52 -64 -100q6 0 37 -5q42 -7 64 -7q85 0 149 25q37 15 63 15
q36 0 67 -26.5t29 -62.5z" />
    <glyph glyph-name="afii10054" unicode="&#x405;" horiz-adv-x="733" 
d="M696 260q-6 -130 -164 -212q-131 -67 -270 -67q-211 0 -205 119q2 34 27.5 53.5t58.5 19.5q23 0 84 -30q21 -10 77 -10q79 0 153 23q98 30 101 81q1 11 -2 20q-10 42 -149 89q-53 17 -196 61q-162 51 -157 151q3 61 39.5 110t93.5 74q205 93 361 93q47 0 80 -36.5
t31 -82.5q-2 -36 -28.5 -64.5t-61.5 -28.5q-26 0 -64 26t-62 26q-50 0 -128 -19q-95 -23 -97 -52q-1 -34 90 -60q397 -117 388 -284z" />
    <glyph glyph-name="FL0406h" unicode="&#x406;" 
 />
    <glyph glyph-name="afii10056" unicode="&#x407;" horiz-adv-x="365" 
d="M227 187q-1 -16 1 -47.5t1 -47.5q-1 -36 -31.5 -65t-66.5 -29q-27 0 -45 18t-16 45q1 17 15 56q19 54 41 235q19 157 24 244q2 54 -1 67q-7 33 -7 47q2 38 34.5 69.5t70.5 31.5q60 0 57 -70q-1 -15 -5 -31q-57 -229 -72 -523zM129 825q-29 0 -51 20t-21 49q2 29 22 51.5
t49 22.5t50.5 -23t19.5 -52q-1 -26 -22 -47t-47 -21zM326 837q-31 0 -53.5 21t-21.5 51q2 30 23 54t51 24t53 -24.5t21 -54.5q-1 -27 -23.5 -49t-49.5 -22z" />
    <glyph glyph-name="afii10057" unicode="&#x408;" horiz-adv-x="724" 
d="M640 663l-21 -201q-17 -141 -43 -224q-35 -109 -108 -174q-81 -73 -189 -73q-112 0 -188 94q-40 49 -49 121q-6 45 -2 131q4 64 58 64q23 0 42.5 -20.5t18.5 -43.5q0 -9 -3.5 -23.5t-3.5 -21.5q-3 -67 35 -111.5t104 -44.5q52 0 96 24q50 27 62 73q41 151 54 414l1 20
q-41 0 -127 -10q-121 -14 -140 -14h-5q-49 0 -46 69q4 72 56 78q17 2 101 5q157 6 247 29q17 4 29 4q41 0 69 -29t26 -69q-3 -67 -74 -67z" />
    <glyph glyph-name="afii10062" unicode="&#x40e;" horiz-adv-x="720" 
d="M730 753q-1 -26 -63 -109q-27 -33 -77 -101q-44 -62 -169 -251q-51 -81 -101 -163q-90 -126 -145 -126q-27 0 -44 19t-16 46q1 22 28 57l145 192q-132 239 -196 305q-44 46 -42 88q2 36 26.5 62.5t59.5 26.5q54 0 81 -66q39 -93 151 -292l82 125q68 103 77 131
q36 111 141 111q24 0 44 -15t18 -40zM360 717q-66 0 -63 48q1 21 21 44q28 30 33 39q8 14 19 70q9 52 35 65q29 15 66 15q80 0 77 -49q-1 -17 -15 -36q-43 -56 -49 -65q-19 -31 -29 -70q-7 -31 -35.5 -46t-59.5 -15z" />
    <glyph glyph-name="afii10017" unicode="&#x410;" horiz-adv-x="727" 
d="M583 -12q-39 0 -55 52q-2 8 -13 72l-10 58l-300 -26q-13 -38 -29 -83q-29 -50 -86 -50q-30 0 -47.5 19.5t-16.5 48.5q2 29 35 79q40 60 140 275q103 223 113.5 279.5t30.5 82.5q26 36 83 36q46 0 59 -53q8 -33 9 -56q2 -39 18 -120q35 -165 89 -347q12 -42 31 -87
q27 -44 25 -80t-18 -64q-22 -36 -58 -36zM477 298q-44 187 -74 287q-53 -105 -142 -303z" />
    <glyph glyph-name="afii10018" unicode="&#x411;" horiz-adv-x="696" 
d="M210 389q-15 -140 -18 -198q-1 -28 -1 -43q80 0 162 21q100 25 153 74q31 30 34 94q2 39 -59 56q-43 13 -104 13q-75 0 -167 -17zM239 657l-9 -117q195 9 315.5 -38t112.5 -212q-7 -137 -199 -230q-122 -59 -323 -62q-19 -10 -40 -10q-65 0 -62 63q2 43 19 118
q21 90 24 117q24 186 30 300q2 49 -1 67q1 15 -11.5 41.5t-0.5 61t45 39.5t127 11q181 12 232 23q18 4 28 4q39 0 69.5 -26t28.5 -61q-3 -66 -79 -66q-16 0 -49 3.5t-49 3.5q-13 0 -175 -8q-29 1 -33 -22z" />
    <glyph glyph-name="afii10019" unicode="&#x412;" horiz-adv-x="696" 
d="M657 290q-7 -137 -199 -230q-122 -59 -323 -62q-19 -10 -40 -10q-65 0 -62 63q2 43 19 118q21 90 24 117q24 186 30 300q2 49 -1 66q-5 32 -4 48q2 38 33 69t69 31q15 0 24 -5q86 23 157 23q96 0 172 -43q96 -54 91 -146q-5 -98 -99 -154q116 -57 109 -185zM249 663
q-11 -49 -24 -152q67 -1 146 17q97 21 143 62q22 19 23 36q2 51 -139 51q-66 0 -149 -14zM207 353q-13 -104 -16 -162q-1 -28 -1 -43q80 0 162 21q100 25 153 74q31 30 33 58q2 39 -60 56q-43 13 -103 13q-76 0 -168 -17z" />
    <glyph glyph-name="afii10020" unicode="&#x413;" horiz-adv-x="658" 
d="M534 667q-17 0 -49.5 4t-48.5 4q-14 0 -121 -4l-111 -5q-23 -210 -36 -455q0 -19 1 -56t0 -56q-2 -38 -30.5 -67t-66.5 -29q-28 0 -45 19t-16 47q2 40 15 120q4 93 7 118q26 190 32.5 280.5t-9.5 124.5t15.5 59.5t183.5 31.5q181 13 232 26q18 4 28 4q40 0 70 -28t28 -67
q-4 -71 -79 -71z" />
    <glyph glyph-name="afii10021" unicode="&#x414;" horiz-adv-x="885" 
d="M617 110q0 -5 -1 2l-10 59h-5l-21 116q-46 198 -77 298q-53 -105 -148 -318l-48 -117q-11 -32 -17 -51q71 2 197 1q83 5 130 10zM815 -40q-23 -69 -45 -87t-57 -18q-69 0 -37 73q2 14 8 35t-4 19.5t-27 -1.5q-13 0 -120 -4l-339 -8l-4 -1q-2 -14 4.5 -36t-4.5 -54
t-65 -32q-81 0 -71 78q2 15 -11 99q-23 38 17 61q10 5 68 8q3 20 33 66q41 60 140 275q103 223 114 279.5t30 82.5q27 36 83 36q47 0 59 -53q8 -33 9 -56q2 -39 19 -120q34 -165 88 -347q13 -42 31 -87q15 -25 19 -40h-1q54 -4 77 -8t9 -83q-20 -49 -23 -77z" />
    <glyph glyph-name="afii10022" unicode="&#x415;" horiz-adv-x="666" 
d="M610 424q-3 -69 -80 -69q-16 0 -47.5 3.5t-46.5 3.5q-50 0 -238 -23q-12 -100 -15 -157q-2 -33 -1 -51l155 8q88 4 161 25q20 5 32 5q34 0 61 -28.5t25 -62.5q-3 -66 -74 -66q-19 0 -55 4t-54 4q-91 0 -295 -22q-23 -16 -49 -16q-67 0 -64 64q2 29 16.5 87t17.5 82
q30 212 38 366q2 49 -1 65q-5 30 -4 47q2 40 33 70t71 30q18 0 29 -7q197 8 313 40q19 4 32 4q35 0 61 -28.5t24 -63.5q-3 -64 -73 -64h-142q-33 0 -200 -19q-15 -73 -25 -171l150 7q41 4 119 26q22 6 35 6q36 0 64.5 -31.5t26.5 -67.5z" />
    <glyph glyph-name="afii10024" unicode="&#x416;" horiz-adv-x="973" 
d="M894 115q-2 -32 -22 -64q-23 -39 -58 -39q-25 0 -60 39q-59 70 -237 194h11q-3 -34 -5 -65q-1 -15 0 -44t1 -44q-2 -41 -28 -71t-67 -30q-28 0 -45 18.5t-15 46.5q2 39 18 114q19 86 20 93q-211 -129 -277 -197q-38 -38 -60 -38q-32 1 -49 41q-13 34 -9 64q9 70 65 84
q33 7 142 78q24 15 130 81q-135 167 -223 256q-35 35 -31 69q4 30 28 47t53 16q6 0 18 -1q43 -9 64 -75q20 -65 182 -240l-9 15q7 63 11 129q2 48 -1 63q-6 29 -5 44q2 40 32.5 72t71.5 32q56 0 53 -72q-2 -27 -12 -72q-12 -51 -13 -68q-8 -60 -19 -152q215 191 250 257
q33 63 80 71q7 1 21 1q30 0 53 -15q27 -19 25 -50q-2 -35 -46 -69q-118 -91 -317 -289q48 -36 106 -79q77 -57 115 -65q61 -15 58 -86z" />
    <glyph glyph-name="afii10025" unicode="&#x417;" horiz-adv-x="712" 
d="M409 693q-87 -10 -122 -22q-43 -16 -46 -46q-4 -30 -27.5 -48t-53.5 -18q-31 0 -46.5 26.5t-11.5 55.5q8 40 46 76q57 68 120 89q35 12 131.5 17t172.5 -38q96 -54 91 -146q-5 -97 -100 -164q116 -57 110 -186q-22 -136 -145.5 -221t-265 -80t-213.5 105q-30 50 -25 76
q3 21 24.5 41t43.5 20q50 0 98 -79q33 -39 81 -34.5t119.5 31t128.5 84.5q33 40 34 69q2 39 -59 56q-42 13 -98 8q-72 0 -111 -1q-33 -3 -59 11q-31 18 -31 46q-1 31 31.5 53t67.5 27q25 3 85 -4q104 27 150 102q23 20 24 37q3 51 -144 57z" />
    <glyph glyph-name="afii10026" unicode="&#x418;" horiz-adv-x="698" 
d="M625 180q-1 -15 -0.5 -45t-0.5 -45q-1 -38 -29 -67.5t-66 -29.5q-60 0 -57 64q1 30 16 85q16 57 19 82q6 44 47 322q-189 -244 -377 -451q-2 -34 -30.5 -63t-66.5 -29q-29 0 -45.5 19.5t-15.5 46.5q1 14 12 51.5t30 180.5q24 178 30 298q2 52 0 69q-5 27 -5 43
q2 39 32 71t68 32q64 0 60 -65q0 -12 -5 -34q-15 -63 -53 -431q155 172 369 463q24 61 65 61q9 0 18 -3q57 0 54 -72q-1 -14 -4 -28q-51 -252 -65 -525z" />
    <glyph glyph-name="afii10027" unicode="&#x419;" horiz-adv-x="698" 
d="M644 180q1 -61 -1 -90q-1 -38 -29 -67.5t-66 -29.5q-60 0 -57 64q1 31 9 86l10 78q5 36 32 323q-177 -242 -365 -449q-2 -34 -30.5 -63t-66.5 -29q-29 0 -45.5 19.5t-15.5 46.5q1 14 12 51.5t22 195.5q9 155 15 274q3 52 0 69q-5 27 -4 43q2 39 31.5 71t68.5 32
q63 0 60 -65q-1 -12 -6 -34q-15 -63 -53 -432q178 182 392 473q24 61 65 61q9 0 18 -3q57 0 54 -72q-1 -14 -4 -28q-34 -167 -43 -348q-5 -87 -3 -177zM270.5 903q23.5 3 48.5 -1q37 -6 45 -6q14 0 70 19q50 16 71 3q17 -11 28.5 -26t10.5 -36q-2 -42 -67 -50.5t-74 -8.5
q-35 0 -106 4q-72 23 -61 61t34.5 41z" />
    <glyph glyph-name="afii10028" unicode="&#x41a;" horiz-adv-x="646" 
d="M594 118q-2 -32 -21 -64q-24 -39 -59 -39q-25 0 -59 39q-61 70 -282 200h10q-3 -34 -4 -65q-1 -15 0 -44t0 -44q-2 -41 -28 -71t-66 -30q-29 0 -45.5 18.5t-15.5 46.5q2 35 19 117q20 92 23 118q26 199 31 301q3 48 0 63q-6 29 -5 44q2 40 32.5 72t70.5 32q57 0 53 -72
q-1 -27 -12 -72q-11 -51 -13 -68q-8 -60 -19 -151q223 209 257 275q33 63 81 71q7 1 20 1q30 0 53 -15q27 -19 26 -50q-2 -35 -46 -69q-119 -90 -325 -307q32 -21 127.5 -81t138.5 -70q62 -15 58 -86z" />
    <glyph glyph-name="afii10029" unicode="&#x41b;" horiz-adv-x="727" 
d="M580 4q-40 0 -75 67q-4 25 -11 57l-11 67l-80 403l-196 -436q-14 -43 -30 -88q-29 -50 -87 -50q-29 0 -46.5 20.5t-16.5 47.5q2 29 35 79q39 59 140 275q102 222 113 277q9 48 23 74q19 24 61 32q12 2 26 2q48 0 59 -53q8 -31 9 -56q2 -40 19 -120q40 -155 92 -331
q11 -39 45 -170q-2 -75 -69 -97z" />
    <glyph glyph-name="afii10030" unicode="&#x41c;" horiz-adv-x="1000" 
d="M928 98q-2 -36 -31.5 -64.5t-65.5 -28.5q-70 0 -66 74q2 13 10 60q5 31 7 66q7 129 5 256q-22 -35 -88 -168q-68 -138 -107 -200l-39 -65q-34 -47 -62 -47q-53 0 -80 48q-7 13 -18 56l-81 243q-29 108 -51 168q-60 -256 -67 -388q-2 -41 -30.5 -71.5t-68.5 -30.5
q-24 0 -40.5 17t-15.5 41q1 17 23 85l28 91q28 113 51 242q23 125 26 172q0 8 -1 24t-1 24q2 42 35 76.5t75 34.5q52 0 49 -59q49 -139 99 -311q23 -80 86 -256l262 529q2 36 31.5 70t68.5 34q67 0 63 -77q-1 -29 -6 -85t-6 -83q-17 -327 3 -447q3 -20 3 -30z" />
    <glyph glyph-name="afii10031" unicode="&#x41d;" horiz-adv-x="687" 
d="M595 190q0 -15 0.5 -45t-0.5 -45q-2 -38 -29.5 -67.5t-65.5 -29.5q-61 0 -58 64q2 30 17 85q15 57 19 82q4 33 12 107q-13 2 -44 2q-46 0 -247 -21q-9 -91 -13 -151q0 -12 1.5 -36t0.5 -36q-2 -38 -30.5 -67t-66.5 -29q-29 0 -45.5 19.5t-15.5 46.5q1 14 12 51.5
t30 180.5q24 178 30 298q2 52 0 69q-5 27 -5 43q2 39 32 71t68 32q64 0 60 -65q0 -12 -5 -34q-16 -63 -38 -248l138 8q85 5 142 22q14 4 12 3q6 59 8 104q3 49 0 64q-6 29 -5 44q1 39 31.5 71t68.5 32q59 0 55 -72q-1 -14 -3 -28q-52 -252 -66 -525z" />
    <glyph glyph-name="afii10032" unicode="&#x41e;" horiz-adv-x="828" 
d="M797 455q-9 -180 -130 -316q-129 -142 -306 -142q-147 0 -237 112q-84 106 -77 253q9 181 129 317q128 143 307 143q148 0 237 -113q84 -106 77 -254zM677 467q4 86 -45 143t-134 57q-126 0 -227.5 -99t-108.5 -225q-4 -86 45.5 -143t135.5 -57q127 0 227 98.5t107 225.5
z" />
    <glyph glyph-name="afii10033" unicode="&#x41f;" horiz-adv-x="746" 
d="M653 179q-1 -14 0.5 -40.5t0.5 -40.5q-2 -37 -30 -66t-65 -29q-32 0 -46 24q-4 6 -2 45q6 123 61 606q-119 2 -319 -10q-61 -342 -67 -477q-1 -16 1 -48t1 -48q-2 -37 -31 -66t-66 -29q-29 0 -45.5 19.5t-15.5 46.5q2 42 19 119q20 89 23 116q26 191 31 301q3 48 0 63
q-6 30 -6 43q2 40 34.5 72.5t69.5 32.5t235 2l230 1q62 0 59 -67q-2 -21 -12 -74q-12 -61 -15 -78q-37 -261 -45 -418z" />
    <glyph glyph-name="afii10034" unicode="&#x420;" horiz-adv-x="664" 
d="M182 250q-5 -51 -7 -77q0 -14 1 -42t0 -42q-2 -39 -28.5 -70t-64.5 -31q-66 0 -63 66q2 29 16 85q15 60 18 82q29 215 38 389q1 15 -3 44.5t-3 44.5q1 38 32.5 69.5t69.5 31.5q13 0 21 -3q97 30 176 30q112 0 195 -65q92 -71 87 -181q-8 -163 -183 -254
q-132 -69 -302 -77zM230 647q-16 -92 -31 -233q78 0 165 26q103 30 154 87q29 31 30 59q2 44 -57 64q-42 14 -105 14q-70 0 -156 -17z" />
    <glyph glyph-name="afii10035" unicode="&#x421;" horiz-adv-x="673" 
d="M677 604q-2 -30 -23.5 -55t-52.5 -25q-27 0 -48 15q-26 18 -23 47q22 25 2 22q1 12 0 18q-41 31 -98 31q-115 0 -203 -100q-83 -94 -89 -212q-4 -83 40 -141q48 -60 127 -60q40 0 85 16.5t73 42.5q69 78 117 78q23 0 42 -20t17 -43q-1 -27 -42 -75q-123 -142 -273 -142
q-140 0 -224 120q-76 108 -69 251q8 162 110 292q112 145 271 145q75 0 133 -35q42 -26 98 -93q32 -38 30 -77z" />
    <glyph glyph-name="afii10036" unicode="&#x422;" horiz-adv-x="659" 
d="M593 667q-16 0 -49 4t-48 4q-14 0 -41.5 -1t-33.5 -1q-46 -233 -59 -478q-1 -18 0.5 -53t0.5 -53q-2 -38 -30.5 -67t-66.5 -29q-28 0 -45 19t-15 47q2 45 18 118q20 97 23 117q26 196 32 304q1 26 -4 68q-45 -2 -122 -11l-60 -7q-52 0 -49 68q4 72 54 78q51 6 134 9
l134 5q35 1 91 7t90 14q18 4 28 4q40 0 69.5 -28t28.5 -67q-4 -71 -80 -71z" />
    <glyph glyph-name="afii10037" unicode="&#x423;" horiz-adv-x="720" 
d="M730 753q-1 -26 -63 -109q-27 -33 -77 -101q-44 -62 -169 -251q-51 -81 -101 -163q-90 -126 -145 -126q-27 0 -44 19t-16 46q1 22 28 57l145 192q-132 239 -196 305q-44 46 -42 88q2 36 26.5 62.5t59.5 26.5q54 0 81 -66q39 -93 151 -292l82 125q68 103 77 131
q36 111 141 111q24 0 44 -15t18 -40z" />
    <glyph glyph-name="afii10038" unicode="&#x424;" horiz-adv-x="1017" 
d="M560 148q83 18 168 100q125 92 131 209q4 81 -59.5 144t-172.5 63h-9q-40 -244 -58 -516zM437 134q11 70 27 219q17 140 29 294q-78 -19 -156 -76q-129 -113 -135 -230q-4 -80 61 -134t175 -73h-1zM559 23v-7q-2 -36 -32 -65t-66 -29q-28 0 -45.5 18t-16.5 45q1 15 7 33
q-135 10 -233 102q-103 100 -96 239q8 171 153 299q116 101 258 124q0 2 1 8q1 38 33.5 69.5t70.5 31.5q61 0 57 -70q-1 -15 -5 -31q-1 -6 0 -1q141 -9 239 -103q103 -100 96 -240q-8 -170 -154 -298q-119 -102 -267 -125z" />
    <glyph glyph-name="afii10039" unicode="&#x425;" horiz-adv-x="644" 
d="M635 750q-1 -26 -34 -65q-60 -73 -205 -290q16 -29 66 -119q21 -29 63 -89q46 -67 44 -97q-1 -32 -19 -56t-50 -24q-17 0 -32 6q-24 9 -57 85q-21 50 -42 99q-15 27 -48 85l-60 -90q-17 -32 -51 -95q-52 -94 -125 -94q-63 0 -60 55q1 22 67 104l81 102q29 45 85 129
q1 -1 -65 117q-15 26 -55 76q-34 42 -42 52q-25 38 -24 67v5q2 34 20.5 58.5t52.5 24.5q46 0 115 -136q27 -55 73 -149l56 86q45 69 54 96q35 110 129 110q66 0 63 -53z" />
    <glyph glyph-name="afii10040" unicode="&#x426;" horiz-adv-x="782" 
d="M707 99q-2 -33 -23 -95q-15 -72 -30 -95q-10 -10 -18 -19q-17 -17 -57 -17q-62 0 -64 48q-2 20 6.5 39t18.5 37q6 10 7 13q-22 1 -57 -1l-170 -10q-47 -3 -124 -10q-62 -5 -80 -5q-53 0 -72 39q-13 26 -10 79q6 130 49 432l16 113q0 8 -0.5 26.5t0.5 27.5q2 42 31.5 81.5
t71.5 39.5q56 0 53 -59q-1 -17 -9 -43q-25 -86 -45 -221q-15 -97 -24 -220q-3 -28 -7 -70q-4 -36 -4 -47q-1 -20 1 -24t18 -4q55 0 274 11q68 323 81 414l4 157q2 38 32 70t67 32q63 0 60 -66q-1 -30 -11 -77q-12 -63 -15 -76l-64 -392q0 -2 -5.5 -30t-5.5 -25q13 2 37.5 5
t48.5 -9q30 0 19 -49z" />
    <glyph glyph-name="afii10041" unicode="&#x427;" horiz-adv-x="691" 
d="M616 336q-2 -59 -4 -121q-6 -94 -25 -146q-29 -76 -88 -76q-32 0 -46 23q-5 8 -3 45q4 78 28 211l-177 -50q-96 -26 -139 -26q-14 0 -23 2q-98 30 -90 195q3 61 23 212q20 88 21 96q2 42 31.5 81.5t71.5 39.5q56 0 56 -62q0 -13 -9 -43q-42 -154 -50 -309q-3 -59 16 -62
q15 -2 31 -2q93 0 256 78l24 298q3 38 31.5 69.5t66.5 31.5q64 0 60 -66q0 -9 -14 -90q-41 -235 -48 -329z" />
    <glyph glyph-name="afii10042" unicode="&#x428;" horiz-adv-x="991" 
d="M900 139q2 -24 1 -44q-5 -101 -99 -101q-19 0 -42 4l-456 -2q-140 -15 -193 -14t-72 41q-12 24 -10 79q5 196 30 431q4 42 10 82q34 197 6 30q0 9 -0.5 27.5t0.5 27.5q2 43 31.5 81.5t71.5 37.5q56 -1 53 -60q-1 -18 -9 -43q-21 -71 -34 -215q-7 -59 -13 -117
q-7 -65 -7 -103q-4 -41 -8 -81q-4 -62 3 -66q4 -3 17 -3q38 -1 203 3q19 49 41 234q19 157 23 244q3 54 0 67q-8 33 -7 47q2 38 34 69.5t70 31.5q61 0 57 -70q0 -15 -4 -31q-58 -229 -72 -523q-1 -19 0 -47q1 -9 1 -18l234 7q39 321 52 413l4 157q2 38 32 69.5t67 30.5
q63 -1 60 -67q-1 -30 -11 -77q-7 -32 -15 -75z" />
    <glyph glyph-name="afii10043" unicode="&#x429;" horiz-adv-x="1050" 
d="M981 96q-2 -32 -23 -93q-6 -74 -32 -96l-16 -18q-17 -18 -57 -18q-64 0 -56.5 52.5t16.5 71.5q6 10 8 13q-11 1 -57 0l-455 -12q-51 -1 -117 -8q-61 -6 -76 -6q-88 2 -82 120q6 130 49 431l16 113q0 8 -0.5 26.5t0.5 27.5q2 43 31.5 81.5t71.5 37.5q56 -1 53 -60
q-1 -18 -9 -43q-49 -168 -69 -440q-3 -28 -7 -69q-4 -37 -4 -48q-1 -20 1 -24t18 -4q38 -1 204 4q16 28 40 233q19 157 23 244q3 54 0 67q-8 33 -7 47q2 38 34.5 69.5t70.5 31.5q60 0 57 -70q-1 -15 -5 -31q-57 -229 -72 -523q-1 -19 1 -47q0 -9 1 -18l204 7q68 322 82 413
l4 157q1 38 31 69.5t67 30.5q64 -1 60 -67q-1 -30 -11 -77q-12 -60 -14 -76l-54 -310q0 -2 -12.5 -69.5t-12.5 -66.5l23 1q38 10 65 -4t17 -50z" />
    <glyph glyph-name="afii10044" unicode="&#x42a;" horiz-adv-x="733" 
d="M723 319q-8 -166 -200 -259q-123 -59 -324 -62q-19 -10 -40 -10q-65 0 -61 63q2 40 18 117q8 99 11 121q25 186 34.5 262t10.5 97q1 23 -13 23q-8 0 -19 -4q-30 -11 -49 -11q-37 0 -39 34q-16 110 56.5 112.5t108 11.5t42.5 9q46 0 41 -109q-1 -21 -4 -49l-14 -141
q97 7 176 7q164 0 202 -34q70 -54 63 -178zM263 389q-14 -134 -17 -192q-2 -28 -1 -43q80 0 162 21q100 25 151 73q34 59 36 89q2 39 -60 56q-43 13 -103 13q-75 0 -168 -17z" />
    <glyph glyph-name="afii10045" unicode="&#x42b;" horiz-adv-x="943" 
d="M661 340q-10 -187 -202 -280q-122 -59 -323 -62q-19 -10 -40 -10q-65 0 -62 63q2 40 19 117q8 99 11 121q24 186 30 300q1 22 3 38.5t-6.5 58.5t5 77.5t56.5 51.5t69.5 -4t20 -65t-8.5 -81l-11 -131q174 22 342 -16q103 -50 97 -178zM210 403q-15 -154 -18 -212
q-1 -28 -1 -43q80 0 162 21q99 25 143 73.5t45 108.5q2 39 -59 56q-43 13 -104 13q-75 0 -168 -17zM861 191q-1 -16 1 -47.5t1 -47.5q-1 -36 -31.5 -65t-66.5 -29q-27 0 -44.5 18t-16.5 45q1 17 15 56q19 54 41 235q19 157 24 244q2 54 -1 67q-7 33 -7 47q2 38 34.5 69.5
t70.5 31.5q60 0 57 -70q-1 -15 -5 -31q-57 -229 -72 -523z" />
    <glyph glyph-name="afii10046" unicode="&#x42c;" horiz-adv-x="696" 
d="M661 340q-10 -187 -202 -280q-122 -59 -323 -62q-19 -10 -40 -10q-65 0 -62 63q2 40 19 117q8 99 11 121q24 186 30 300q1 22 3 38.5t-6.5 58.5t5 77.5t56.5 51.5t69.5 -4t20 -65t-8.5 -81l-11 -131q174 22 342 -16q103 -50 97 -178zM210 403q-15 -154 -18 -212
q-1 -28 -1 -43q80 0 162 21q99 25 143 73.5t45 108.5q2 39 -59 56q-43 13 -104 13q-75 0 -168 -17z" />
    <glyph glyph-name="afii10047" unicode="&#x42d;" horiz-adv-x="703" 
d="M221 394q-1 28 31.5 47t67.5 23q25 3 63 -8q61 2 88.5 -1t95.5 8q-2 58 -14 102q-61 98 -144 106q-23 2 -43 2q-41 0 -76 -12q-43 -16 -46 -46q-4 -30 -27 -48t-54 -18q-30 0 -46 26.5t-11 55.5q7 40 45 76q58 68 120 89q40 14 99 14q36 0 78 -4q117 -14 199 -146
q64 -104 57 -244q-1 -24 -4 -48q-24 -182 -135 -275q-121 -98 -255 -98q-144 0 -256 118q-30 50 -25 76q3 21 24.5 41t43.5 20q50 0 98 -79q41 -48 122 -48q23 0 50 4q72 12 129 77q53 61 67 147l-1 -3q1 0 -10 2l-134 2q-36 -7 -107 -8q-33 -3 -58 9q-32 16 -32 41z" />
    <glyph glyph-name="afii10048" unicode="&#x42e;" horiz-adv-x="1078" 
d="M584 157q127 0 227.5 98.5t106.5 225.5q4 86 -45 143t-133 57q-126 0 -228 -99t-108 -225q-4 -86 45.5 -143t134.5 -57zM305 483q26 113 113 210q128 143 306 143q148 0 238 -113q84 -106 76 -254q-9 -180 -130 -316q-129 -142 -306 -142q-147 0 -236 112q-79 99 -78 225
l-98 -3l-19 -162q0 -32 -4 -98q-7 -76 -81 -75q-36 0 -53 41q-14 31 -11 65q2 22 11 58q11 42 14 57q5 37 24 179l16 133q9 69 34 204q10 49 65 47q67 8 69 -52l-11 -60q-15 -82 -34 -193q33 -8 46 -8z" />
    <glyph glyph-name="afii10049" unicode="&#x42f;" horiz-adv-x="672" 
d="M79 -7q-35 -5 -52 32q-13 28 -8 59q10 78 79 98q33 9 110 55q25 15 87 53q-160 14 -221 112q-42 67 -32 140q16 112 128 195q99 74 214 89q81 11 170 -3q9 4 19 5q40 6 67.5 -22.5t20.5 -68.5q-9 -30 -22 -88q-27 -192 -35 -386q-1 -22 3 -80q3 -53 0 -84
q-4 -29 -25 -49.5t-49 -23.5q-40 -6 -63.5 23t-17.5 69q7 27 19 82q3 19 5 62q-230 -134 -330 -227q-42 -38 -67 -42zM503 686q-155 4 -254 -43q-74 -36 -82 -88q-4 -32 18 -62q41 -55 140 -72q81 -14 163 -2q8 96 12 177q3 55 3 90z" />
    <glyph glyph-name="afii10065" unicode="&#x430;" horiz-adv-x="660" 
d="M461 23q-130 -37 -249 -32.5t-177 101.5q-42 67 -3.5 157.5t104.5 140.5q100 63 214 64q41 10 170 7q0 56 -25 72q-29 18 -75 17q-40 -1 -107.5 -7t-104.5 -25q-39 -30 -57 -30q-58 11 -54 65t38 74q66 39 143.5 51.5t146.5 14.5q103 3 160 -42q66 -50 59 -153
q-2 -23 -17 -84.5t-26 -226.5q-2 -13 -1.5 -39.5t0.5 -38.5q13 -78 -16 -92.5t-79 -26.5q-36 23 -44 33zM496 323q-193 23 -284 -26q-38 -21 -56.5 -53t6.5 -72.5t124 -55.5q48 -10 173 29l16 72q16 89 21 106z" />
    <glyph glyph-name="afii10066" unicode="&#x431;" horiz-adv-x="694" 
d="M502.5 384q-30.5 41 -90 46t-213.5 -45q-12 -103 -14 -129q-3 -64 28 -105.5t99 -41.5q65 0 128.5 50t78 117t-16 108zM416 560q114 0 204 -113q45 -62 24.5 -167t-101 -204t-218.5 -99q-132 0 -211 88q-77 84 -71 201q2 36 5 78t2 53q5 58 16 114t68 137q47 52 139 86
q82 33 177 42t162 35q39 -8 36 -56q-1 -27 -16 -53q-39 -48 -86.5 -49.5t-135 -12.5t-127.5 -26q-38 -18 -59 -48q-18 -36 -20 -43q64 37 212 37z" />
    <glyph glyph-name="afii10067" unicode="&#x432;" horiz-adv-x="673" 
d="M631 229q-3 -119 -197 -192q-123 -47 -318 -43q-19 -8 -40 -8q-66 2 -64 57q0 37 15 101q18 77 21 99q18 159 21 263q0 42 -3 57q-7 27 -6 41q0 34 31.5 59.5t68.5 24.5q15 0 25 -5q88 17 167.5 19.5t159.5 -36.5q100 -49 98 -129q-3 -102 -94 -146q117 -51 115 -162z
M216 558q-9 -42 -18 -125q67 -3 135 10q95 25 140 56q20 15 21 28q0 44 -97.5 49.5t-180.5 -18.5zM183 296q-9 -88 -10 -137q-1 -24 0 -36q80 -2 151 13q97 18 147 59q30 24 30 47q1 32 -60 49q-42 12 -103 14q-64 2 -155 -9z" />
    <glyph glyph-name="afii10068" unicode="&#x433;" horiz-adv-x="605" 
d="M528 537q-17 0 -49.5 4t-48.5 4q-14 0 -121 -4l-112 -5q-16 -80 -29 -335q0 -19 1 -56t0 -56q-2 -38 -30.5 -67t-66.5 -29q-28 0 -45 19t-16 47q2 40 15 120q5 103 8 128q25 190 28.5 215.5t-12.5 59.5t15.5 59.5t183.5 31.5q181 13 232 26q18 4 28 4q40 0 70 -28t28 -67
q-4 -71 -79 -71z" />
    <glyph glyph-name="afii10069" unicode="&#x434;" horiz-adv-x="828" 
d="M538 82l-10 35l-19 99q-43 166 -62 227q-36 -67 -121 -245l-43 -100q-20 -27 -19 -26q59 -8 172 2q66 4 102 8zM743 -69q-22 -73 -45 -90.5t-59 -17.5q-79 0 -43 77q1 11 5.5 35.5t3 24t-17.5 -0.5q-13 0 -109 -3l-301 -8q0 1 5.5 -33t-6.5 -67t-68 -33q-85 0 -75 79
q1 21 -9 97q-27 41 22 69q11 5 56 8q2 9 31 50q35 50 125 230q91 187 101 235.5t30 72.5q27 35 83 35q50 0 63 -52q8 -30 9 -51q1 -32 17 -99q32 -138 80 -292q12 -34 28 -70q14 -23 21 -49l-14 20q50 -3 76.5 -7.5t11.5 -85.5q-17 -41 -21 -74z" />
    <glyph glyph-name="afii10070" unicode="&#x435;" horiz-adv-x="642" 
d="M148 374q6 -1 27 -1q50 0 145.5 7.5t141.5 23.5l16 8q0 -1 2 3q14 66 -16.5 107.5t-65 46t-126.5 -26.5t-113 -122q-11 -45 -11 -46zM134 234q-3 -69 28 -90q29 -19 74 -19q40 0 118 18.5t115 37.5q40 25 54 25q29 11 47 -18q12 -22 11 -48q-3 -46 -36 -65
q-65 -36 -153 -62t-157 -26q-103 0 -161 46q-67 52 -62 154q1 22 3 78t10.5 113t33 125t106 124t212.5 71q114 0 204 -113q45 -62 25 -168q-5 -24 -10 -63.5t-45 -56.5q-80 -33 -186.5 -46.5t-190.5 -13.5q-24 0 -32 -1.5z" />
    <glyph glyph-name="afii10072" unicode="&#x436;" horiz-adv-x="893" 
d="M835 99q-1 -29 -19 -59q-23 -37 -57 -37q-26 -1 -59 34q-57 57 -213 153q4 -15 3 -44q0 -13 1.5 -38t1.5 -38q0 -38 -25 -66t-65 -29q-28 -1 -45.5 16.5t-15.5 43.5q0 34 13 100q14 75 14 70q-182 -111 -241 -171q-36 -36 -59 -36q-31 0 -49 37q-14 30 -12 58q7 65 63 79
q29 7 127 71q22 14 113 69q-145 158 -229 233q-36 31 -33 63q4 29 27.5 45.5t51.5 15.5h17q43 -8 64 -67q21 -54 181 -236l-5 4q8 93 9 151q1 41 -2 53q-6 26 -7 39q1 37 30.5 67t68.5 31q57 1 55 -66q0 -24 -8 -64q-9 -44 -11 -58q-6 -53 -13 -139q186 181 215 238
q31 58 76 66q7 1 20 2q29 0 51 -12q29 -17 28 -48q-1 -33 -43 -65q-106 -81 -281 -272q40 -27 95 -63q72 -47 107 -53q61 -12 60 -78z" />
    <glyph glyph-name="afii10073" unicode="&#x437;" horiz-adv-x="675" 
d="M385 568q-78 -8 -109 -17q-33 -12 -35 -31q-4 -31 -28.5 -48t-54.5 -17q-32 0 -49 26t-12 55q7 37 44 69q54 59 113 78q33 10 122.5 14t160.5 -33q93 -48 88 -132q-4 -87 -80 -136q97 -44 91 -159q-20 -120 -135.5 -193.5t-248 -69.5t-201.5 92q-29 46 -24 71
q3 21 26 40.5t45 19.5q50 0 96 -70q27 -29 68.5 -25.5t105.5 25.5t113 69q27 30 28 51q1 25 -48 38q-37 11 -87 7q-66 0 -101 -1q-32 -3 -57 10q-34 18 -34 47q-1 32 31.5 52.5t66.5 25.5q24 2 78 -4q89 22 130 83q20 15 20 25q2 34 -123 38z" />
    <glyph glyph-name="afii10074" unicode="&#x438;" horiz-adv-x="655" 
d="M573 184q-1 -13 0 -40t1 -40q-2 -38 -32 -76.5t-69 -38.5q-31 0 -45 22.5t-8 91.5q-179 -113 -305 -116q-53 0 -72 39q-13 26 -10 79q6 129 33 299l15 113q1 8 0.5 26.5t-0.5 27.5q2 42 32 81.5t72 39.5q55 0 52 -59q-1 -17 -8 -43q-58 -195 -54 -317q-5 -105 12 -114
q6 -3 18 -3q54 0 112.5 25t132.5 75q15 48 24 226q2 47 -1 62q-6 30 -5 45q2 38 31.5 70t66.5 32q64 0 61 -66q-2 -30 -11 -77q-7 -32 -15 -76q-30 -115 -28 -288z" />
    <glyph glyph-name="afii10075" unicode="&#x439;" horiz-adv-x="646" 
d="M265.5 799q23.5 3 48.5 -1q37 -6 46 -6q13 0 69 19q50 16 71 3q17 -11 28.5 -26t10.5 -36q-2 -42 -67 -50.5t-73 -8.5q-36 0 -107 4q-71 23 -60.5 61t34 41zM573 184q-1 -13 0 -40t1 -40q-2 -38 -32 -76.5t-69 -38.5q-31 0 -45 22.5t-8 91.5q-179 -113 -305 -116
q-53 0 -72 39q-13 26 -10 79q6 129 33 299l15 113q1 8 0.5 26.5t-0.5 27.5q2 42 32 81.5t72 39.5q55 0 52 -59q-1 -17 -8 -43q-58 -195 -54 -318q-5 -105 12 -114q6 -3 18 -3q54 0 112.5 25t132.5 75q15 48 24 227q2 47 -1 62q-6 30 -5 45q2 38 31.5 70t66.5 32q64 0 61 -66
q-2 -30 -11 -77q-7 -32 -15 -76q-30 -115 -28 -288z" />
    <glyph glyph-name="afii10076" unicode="&#x43a;" horiz-adv-x="608" 
d="M564 103q-1 -29 -20 -58q-24 -36 -59 -36q-25 0 -59 35q-56 60 -246 169q-2 -22 -4 -49q0 -13 1 -43t0 -43q-2 -37 -27.5 -64.5t-65.5 -27.5q-29 0 -45.5 17.5t-15.5 43.5q2 31 18 112q18 79 21 101q23 171 28 259q2 41 -1 53q-5 25 -4 39q1 37 31 66t70 29q57 0 54 -67
q-1 -25 -11 -63q-10 -44 -12 -58q-8 -52 -16 -118q197 171 228 227q32 57 78 64q7 1 21 1q29 0 52 -14q27 -18 25 -47q-1 -33 -45 -64q-110 -78 -294 -259q22 -13 111.5 -65t129.5 -61q60 -14 57 -79z" />
    <glyph glyph-name="afii10077" unicode="&#x43b;" horiz-adv-x="614" 
d="M521 -16q-43 0 -78 63q-4 23 -10 49l-10 56l-63 313l-164 -342q-13 -35 -27 -74q-30 -48 -87 -48q-30 0 -48.5 20t-17.5 48q2 27 32 72q35 48 132 237q87 184 96 228q9 43 22 66q20 25 61 32q12 2 25 2q51 0 62 -53q7 -27 8 -49q1 -32 16 -97q35 -129 80 -285
q11 -33 41 -144q-2 -72 -70 -94z" />
    <glyph glyph-name="afii10078" unicode="&#x43c;" horiz-adv-x="861" 
d="M827 81q-2 -35 -30 -60.5t-62 -25.5q-68 0 -64 69q0 12 8 52q5 25 6 54q5 108 5 191q-6 -9 -64 -121q-59 -115 -92 -167q-29 -46 -35 -56q-32 -42 -60 -42q-50 0 -76 44q-6 12 -16 48l-70 203q-25 91 -35 124q-48 -195 -53 -305q-2 -37 -29 -65t-65 -28q-24 0 -40.5 16.5
t-15.5 39.5q1 16 20 73l25 76q23 95 43 202q20 105 22 143q0 7 -1 20t0 21q2 38 32.5 69t69.5 31q53 0 50 -54q44 -117 87 -262q20 -66 69 -197l219 426q1 31 28.5 62t65.5 31q65 0 62 -72q-2 -25 -5.5 -71.5t-4.5 -69.5q-14 -273 3 -373q3 -17 3 -26z" />
    <glyph glyph-name="afii10079" unicode="&#x43d;" horiz-adv-x="665" 
d="M593 180q0 -15 1 -45t1 -45q-2 -38 -29 -67.5t-66 -29.5q-60 0 -58 64q2 29 16 85q13 37 15 62q5 33 10 67q-13 2 -45 2q-45 0 -247 -21q-6 -51 -7 -91q0 -12 1.5 -35.5t2.5 -36.5q-2 -38 -30 -67t-67 -29q-28 0 -44.5 19t-16.5 47q1 14 11.5 51.5t24.5 120.5
q20 178 22 248q2 52 -2 69q-5 27 -4 43q1 39 30 71t67 32q64 0 62 -65q-1 -12 -5 -34q-14 -63 -31 -198l137 8q85 5 141 22q15 4 14 3q3 19 3 54q2 49 -2 64q-6 29 -5 44q1 39 30.5 71t68.5 32q58 0 55 -72q0 -14 -2 -28q-45 -202 -52 -415z" />
    <glyph glyph-name="afii10080" unicode="&#x43e;" horiz-adv-x="745" 
d="M729 381q-7 -154 -121 -270q-120 -122 -286 -122q-138 0 -223 96q-80 91 -74 218q8 155 120 272q119 122 287 122q139 0 223 -97q81 -91 74 -219zM601 391q3 68 -39.5 112.5t-116.5 44.5q-112 0 -201.5 -80t-94.5 -181q-4 -67 39 -112t118 -45q113 0 201.5 80t93.5 181z
" />
    <glyph glyph-name="afii10081" unicode="&#x43f;" horiz-adv-x="646" 
d="M595 179q-1 -14 0.5 -40.5t0.5 -40.5q-2 -37 -30 -66t-65 -29q-32 0 -46 24q-4 6 -2 45q6 123 45 476q-120 2 -279 -10q-45 -212 -51 -347q-1 -16 1 -48t1 -48q-2 -37 -31 -66t-66 -29q-29 0 -45.5 19.5t-15.5 46.5q2 42 19 119q20 89 23 116q10 71 15 171q2 48 -1 63
q-6 30 -5 43q2 40 34.5 72.5t69.5 32.5t195 2l230 1q61 0 58 -67q-1 -21 -12 -74q-12 -61 -15 -78q-20 -131 -28 -288z" />
    <glyph glyph-name="afii10082" unicode="&#x440;" horiz-adv-x="671" 
d="M177 30l-3 -18q0 -13 1 -41t0 -42q-2 -39 -28.5 -70t-64.5 -31q-66 0 -63 66q2 29 16 85q15 60 19 112q30 215 39 389q0 15 -4 44.5t-3 44.5q2 38 33 69.5t70 31.5q13 0 21 -3q96 30 176 30q111 0 195 -65q92 -71 82 -271q-8 -163 -161.5 -243t-324.5 -88zM232 528
q-23 -213 -38 -354q78 0 165 26q104 30 142.5 59.5t41.5 86.5q8 164 -51 184q-42 14 -105 14q-70 0 -155 -16z" />
    <glyph glyph-name="afii10083" unicode="&#x441;" horiz-adv-x="658" 
d="M641 510q-1 -30 -24.5 -56t-57.5 -26q-30 0 -53 17q-27 40 -23 75q4 6 2 21q-30 22 -78 22q-108 0 -184 -101q-63 -78 -68 -174q-3 -67 35 -113q40 -47 106 -66q32 0 70.5 13t61.5 33q67 91 117 91q27 0 47.5 -21t19.5 -46q-2 -28 -42 -73q-116 -127 -259 -127
q-134 0 -215 108q-71 97 -65 224q8 144 102 259q107 130 257 130q73 0 129 -32q39 -23 92 -81q32 -38 30 -77z" />
    <glyph glyph-name="afii10084" unicode="&#x442;" horiz-adv-x="659" 
d="M586 537q-16 0 -49 4t-48 4q-14 0 -41.5 -1t-33.5 -1q-46 -233 -52 -348q-1 -18 0 -53t1 -53q-2 -38 -31 -67t-67 -29q-27 0 -44 19t-16 47q2 45 18 118q21 97 24 118q19 66 25 173q1 26 -4 68q-45 -2 -122 -11l-60 -7q-52 0 -49 68q4 72 54 78q51 6 134 9l134 5
q35 1 91 7t90 14q18 4 28 4q40 0 69.5 -28t28.5 -67q-4 -71 -80 -71z" />
    <glyph glyph-name="afii10085" unicode="&#x443;" horiz-adv-x="660" 
d="M64 375l16 125q1 9 0.5 29.5t0.5 30.5q2 44 31.5 88t72.5 44q55 0 52 -64q-1 -19 -9 -47q-52 -195 -59 -286.5t17 -112.5q32 -38 116.5 -31t169.5 28q4 43 15 113.5t15 152.5q3 56 0 74q-6 35 -5 53q2 44 32 81.5t68 37.5q63 0 59 -76q-2 -36 -11 -92q-7 -38 -16 -90
q-13 -57 -21 -142.5t-16 -202.5q-3 -24 -5 -51l-1 -16q-12 -107 -149 -174q-108 -57 -233 -57q-194 0 -189 108q2 32 28 51t58 8q19 0 75 -31q16 -8 65 -8q68 0 122 18q82 42 87 104h11q-165 -57 -300 -1q-127 50 -115.5 168t18.5 168z" />
    <glyph glyph-name="afii10086" unicode="&#x444;" horiz-adv-x="910" 
d="M486 109q59 17 146.5 78t103 146.5t-45 148t-143.5 62.5h-9q-37 -234 -52 -435zM363 101q12 69 27 216q13 69 25 219q-56 -18 -144.5 -83t-100.5 -146t52 -134t143 -72h-2zM485 -16v-8q-5 -106 -35.5 -135t-66.5 -29q-27 0 -45 18t-16 45q0 14 13 103q-119 10 -206 102
q-103 100 -97 220t131 234.5t248 137.5v8q2 38 34.5 69.5t70.5 31.5q60 0 57 -70q-1 -15 -5 -31q-1 -6 0 -2q120 -19 218 -112q103 -100 97.5 -214.5t-151.5 -257.5q-119 -88 -247 -110z" />
    <glyph glyph-name="afii10087" unicode="&#x445;" horiz-adv-x="639" 
d="M629 638q-2 -24 -37 -61q-59 -62 -186 -243q12 -21 62 -97q22 -26 63 -77q48 -61 46 -90q-1 -31 -21 -55t-55 -24q-19 0 -34 6q-28 9 -62 78q-20 43 -42 94q-14 24 -40 64l-51 -67q-18 -38 -51 -92q-53 -86 -130 -86q-71 0 -68 57q1 22 78 97q26 29 79 86q27 39 80 122
q-64 68 -72 79q-15 23 -55 65q-33 36 -42 46q-27 35 -25 64v4q2 33 22.5 57t57.5 24q51 0 121 -131q27 -48 66 -119l47 65q44 58 52 79q37 112 136 112q76 0 61 -57z" />
    <glyph glyph-name="afii10088" unicode="&#x446;" horiz-adv-x="717" 
d="M667 99q-2 -33 -23 -95q-15 -72 -30 -95q-10 -10 -18 -19q-17 -17 -57 -17q-62 0 -64 48q-2 20 6.5 39t18.5 37q6 10 7 13q-22 1 -57 -1l-130 -10q-47 -3 -124 -10q-62 -5 -80 -5q-53 0 -72 39q-13 26 -10 79q6 130 33 312l16 113q0 8 -0.5 26.5t0.5 27.5q2 42 31.5 81.5
t71.5 39.5q56 0 53 -59q-1 -17 -9 -43q-25 -86 -45 -221q-14 -90 -8 -93q-3 -35 -7 -77q-4 -36 -4 -47q-1 -20 1 -24t18 -4q54 0 234 11q42 203 55 294l4 157q2 38 32 70t67 32q63 0 60 -66q-1 -30 -11 -77q-12 -63 -15 -76l-38 -272q0 -2 -5.5 -30t-5.5 -25q13 2 37.5 5
t48.5 -9q30 0 19 -49z" />
    <glyph glyph-name="afii10089" unicode="&#x447;" horiz-adv-x="660" 
d="M604 296q-2 -59 -4 -120q5 -65 -14 -108q-28 -75 -87 -75q-32 0 -46 23q-5 8 -3 45q2 48 16 151l-168 -50q-96 -26 -139 -26q-14 0 -23 2q-98 30 -90 195q3 61 8 121q22 119 23 127q2 42 31.5 81.5t71.5 39.5q56 0 56 -62q0 -13 -9 -43q-44 -183 -37 -249q-3 -59 16 -62
q15 -2 31 -2q93 0 246 77l11 239q3 38 31.5 69.5t66.5 31.5q64 0 60 -66q0 -9 -14 -90q-27 -155 -34 -249z" />
    <glyph glyph-name="afii10090" unicode="&#x448;" horiz-adv-x="911" 
d="M830 139q2 -24 1 -44q-5 -101 -99 -101q-19 0 -42 4l-386 -2q-140 -15 -193 -14t-72 41q-12 24 -10 79q5 196 11.5 274.5t12.5 118.5q34 197 6 30q0 9 -0.5 27.5t0.5 27.5q2 43 31.5 81.5t71.5 37.5q56 -1 53 -60q-1 -18 -9 -43q-21 -71 -29.5 -142t-3.5 -109
q-5 -26 -5 -64q-4 -41 -8 -81q-4 -62 3 -66q4 -3 17 -3q38 -1 163 3q19 50 39 194q6 107 9 164q3 54 0 67q-8 33 -7 47q2 38 34 69.5t70 31.5q61 0 57 -70q0 -15 -4 -32q-56 -198 -56 -402q-1 -19 0 -47q1 -9 1 -18l204 7q24 231 36 293l4 157q2 38 32 69.5t67 30.5
q63 -1 60 -67q-1 -30 -11 -77q-7 -32 -15 -75z" />
    <glyph glyph-name="afii10091" unicode="&#x449;" horiz-adv-x="942" 
d="M911 92q-1 -32 -22 -93q-6 -74 -32 -96l-16 -18q-17 -18 -57 -18q-64 0 -56.5 52.5t16.5 71.5q6 10 8 13q-11 1 -57 0l-425 -8q-12 -1 -78 -8q-61 -6 -76 -6q-88 2 -82 120q6 130 23 301l16 113q0 8 -0.5 26.5t-0.5 27.5q2 43 32 81.5t72 37.5q55 -1 52 -60
q-1 -18 -8 -43q-49 -167 -43 -309q-3 -29 -7 -70q-4 -37 -4 -48q-1 -20 1 -24t18 -4q38 -1 164 4q16 28 19 203q14 57 18 144q3 54 0 67q-8 33 -7 47q2 38 34 69.5t70 31.5q61 0 57 -70q-1 -15 -5 -31q-57 -229 -45 -393q-1 -19 1 -47q0 -9 1 -18l175 3q31 195 34 286l4 158
q2 38 31.5 69.5t67.5 30.5q63 -1 60 -67q-2 -30 -11 -77l-15 -75l-17 -181q0 -2 -7 -71l-7 -69l23 1q38 10 65 -4t16 -50z" />
    <glyph glyph-name="afii10092" unicode="&#x44a;" horiz-adv-x="733" 
d="M711 279q-6 -126 -198 -219q-113 -59 -314 -62q-19 -10 -40 -10q-65 0 -61 63q2 40 18 118q6 58 9 80q25 187 32.5 222.5t8.5 56.5q1 23 -13 23q-8 0 -19 -4q-30 -11 -49 -11q-37 0 -39 34q-16 110 56.5 112.5t108 11.5t42.5 9q46 0 41 -109q-1 -21 -4 -49l-10 -61
q97 7 166 7q164 0 202 -34q70 -54 63 -178zM261 349q-14 -134 -15 -152q-2 -28 -1 -43q80 0 162 21q90 25 131.5 59.5t43.5 62.5q2 39 -60 56q-43 13 -103 13q-65 0 -158 -17z" />
    <glyph glyph-name="afii10093" unicode="&#x44b;" horiz-adv-x="840" 
d="M772 191q-1 -16 1 -47.5t1 -47.5q-1 -36 -31.5 -65t-66.5 -29q-27 0 -44.5 18t-16.5 45q1 17 15 56q19 54 42 236q13 56 17 123q2 54 -1 67q-7 33 -7 47q2 38 34.5 69.5t70.5 31.5q60 0 57 -70q-1 -15 -5 -32q-56 -209 -66 -402zM103 675q19 14 67 22t52 -73
q-10 -61 -13 -89l-9 -51q96 7 166 7q164 0 201 -34q71 -54 64 -178q-7 -126 -198 -219q-113 -59 -314 -62q-19 -10 -40 -10q-65 0 -62 63q2 40 19 118q6 58 9 80q24 186 27 238.5t7.5 113t23.5 74.5zM181 349q-15 -134 -16 -152q-1 -28 0 -43q80 0 161 21q90 25 132 59.5
t43 62.5q2 39 -59 56q-43 13 -104 13q-65 0 -157 -17z" />
    <glyph glyph-name="afii10094" unicode="&#x44c;" horiz-adv-x="651" 
d="M103 675q19 14 67 22t52 -73q-10 -61 -13 -89l-9 -51q96 7 166 7q164 0 201 -34q71 -54 64 -178q-7 -126 -198 -219q-113 -59 -314 -62q-19 -10 -40 -10q-65 0 -62 63q2 40 19 118q6 58 9 80q24 186 27 238.5t7.5 113t23.5 74.5zM181 349q-15 -134 -16 -152q-1 -28 0 -43
q80 0 161 21q90 25 132 59.5t43 62.5q2 39 -59 56q-43 13 -104 13q-65 0 -157 -17z" />
    <glyph glyph-name="afii10095" unicode="&#x44d;" horiz-adv-x="687" 
d="M208 344q-1 28 31.5 47t67.5 23q26 3 54 -8q61 2 88.5 -1t79.5 6q1 -2 -2 45q-60 97 -143 105q-23 2 -43 2q-31 0 -66 -12q-43 -16 -46 -46q-4 -30 -27.5 -48t-53.5 -18q-31 0 -46.5 26.5t-11.5 55.5q8 40 46 76q57 68 120 89q39 14 89 14q35 0 78 -4q117 -14 198 -146
q65 -105 51 -185q-2 -23 -5 -47q-11 -132 -112 -225q-121 -98 -245 -98q-144 0 -256 118q-30 50 -25 76q3 21 24.5 41t43.5 20q50 0 98 -79q41 -48 122 -48q13 0 40 4q71 12 118 76q54 62 55 97v-2l-10 2l-124 2q-36 -7 -98 -8q-33 -3 -58 9q-31 16 -32 41z" />
    <glyph glyph-name="afii10096" unicode="&#x44e;" horiz-adv-x="974" 
d="M555 157q167 -15 274 164q36 118 -13 174t-133 56q-107 0 -190.5 -54t-118.5 -142q-4 -84 45.5 -141t135.5 -57zM274 443q23 40 99 131q137 132 295 132q148 0 237 -113q85 -106 62.5 -222t-118.5 -232q-120 -128 -297 -128q-127 0 -216 112q-79 98 -80 185l-68 -3
l-17 -122q0 -32 -4 -98q-7 -76 -81 -75q-36 0 -53 41q-14 31 -11 65q2 22 11 58q11 42 14 57q5 37 23 179q12 121 37 247q10 49 64 47q68 8 70 -52l-12 -60q-14 -72 -22 -142q34 -9 47 -9z" />
    <glyph glyph-name="afii10097" unicode="&#x44f;" horiz-adv-x="635" 
d="M73 -9q-36 -5 -51 29q-12 24 -6 51q11 67 77 84q30 7 102 45q24 13 71 38q-137 11 -192 93q-39 57 -28 120q18 94 125 163q93 62 201 75q75 9 157 -3q8 4 19 4q37 6 63 -19t19 -62q-10 -24 -23 -71q-30 -159 -41 -321q-1 -17 1 -76q2 -44 -2 -70q-4 -24 -24.5 -42
t-48.5 -21q-37 -5 -59.5 20.5t-15.5 60.5q7 23 19 68q3 25 6 55q-211 -109 -306 -186q-40 -33 -63 -35zM477 565q-141 4 -234 -35q-67 -29 -75 -71q-4 -24 14 -48q37 -44 127 -58q74 -11 148 -2q10 77 15 144q4 46 5 70z" />
    <glyph glyph-name="afii10071" unicode="&#x451;" horiz-adv-x="642" 
d="M471 722q-30 0 -52.5 21t-21.5 51q2 29 23 53t51 24q29 0 52 -24.5t21 -53.5q-1 -27 -23.5 -49t-49.5 -22zM247 689q-34 0 -59 23t-23 56t25 59t56 26q32 0 57.5 -27t23.5 -59q-1 -30 -25.5 -54t-54.5 -24zM147 364q6 -1 27 -1q50 0 145.5 7.5t141.5 23.5q12 6 17 8
q0 -1 1 3q15 66 -16 107.5t-65.5 46t-126 -26.5t-113.5 -122q-10 -45 -11 -46zM134 234q-3 -69 28 -90q29 -19 74 -19q40 0 118 18.5t115 37.5q40 25 54 25q29 11 47 -18q12 -22 11 -48q-3 -46 -36 -65q-65 -36 -153 -62t-157 -26q-103 0 -161 46q-67 52 -62 154
q1 22 2.5 73t10 108t33 125t106 124t212.5 71q114 0 204 -113q46 -62 25 -168q-4 -24 -9.5 -63.5t-45.5 -56.5q-80 -33 -186.5 -41.5t-189.5 -8.5q-24 0 -32 -1.5z" />
    <glyph glyph-name="afii10101" unicode="&#x454;" horiz-adv-x="673" 
d="M577 395q-1 -35 -33 -53q-24 -16 -58 -16q-18 0 -53 2.5t-52 2.5q-111 0 -201 -25q-24 -6 -40 -6h4q4 -50 40 -96q49 -61 111 -71q26 -4 51 -4q87 0 140 49q68 78 117 78q23 0 41.5 -20t17.5 -43q-1 -26 -43 -75q-142 -117 -290 -117q-140 0 -224 120q-76 108 -69 251
q7 138 106 270q106 140 239 164q49 8 89 8q44 0 78 -12q60 -22 105 -90q31 -37 29 -77q-1 -30 -23 -55t-52 -25q-31 0 -52.5 18t-18 46t-24.5 51q-16 13 -50 13q-25 0 -59 -7q-82 -18 -171 -120q-46 -52 -64 -100q6 0 37 -5q42 -7 64 -7q85 0 149 25q37 15 63 15
q36 0 67 -26.5t29 -62.5z" />
    <glyph glyph-name="afii10102" unicode="&#x455;" horiz-adv-x="733" 
d="M696 260q-6 -130 -164 -212q-131 -67 -270 -67q-211 0 -205 119q2 34 27.5 53.5t58.5 19.5q23 0 84 -30q21 -10 77 -10q79 0 153 23q98 30 101 81q1 11 -2 20q-10 42 -149 89q-53 17 -196 61q-162 51 -157 151q3 61 39.5 110t93.5 74q205 93 361 93q47 0 80 -36.5
t31 -82.5q-2 -36 -28.5 -64.5t-61.5 -28.5q-26 0 -64 26t-62 26q-50 0 -128 -19q-95 -23 -97 -52q-1 -34 90 -60q397 -117 388 -284z" />
    <glyph glyph-name="afii10103" unicode="&#x456;" horiz-adv-x="300" 
d="M210 188q-1 -16 1 -47.5t1 -47.5q-2 -36 -32 -65t-66 -29q-27 0 -45 18t-17 45q1 17 16 56q19 54 41 235q19 157 23 244q3 54 0 67q-8 33 -7 47q2 38 34 69.5t70 31.5q61 0 57 -70q0 -15 -4 -31q-58 -229 -72 -523z" />
    <glyph glyph-name="afii10104" unicode="&#x457;" horiz-adv-x="365" 
d="M227 187q-1 -16 1 -47.5t1 -47.5q-1 -36 -31.5 -65t-66.5 -29q-27 0 -45 18t-16 45q1 17 15 56q19 54 41 235q19 157 24 244q2 54 -1 67q-7 33 -7 47q2 38 34.5 69.5t70.5 31.5q60 0 57 -70q-1 -15 -5 -31q-57 -229 -72 -523zM129 825q-29 0 -51 20t-21 49q2 29 22 51.5
t49 22.5t50.5 -23t19.5 -52q-1 -26 -22 -47t-47 -21zM326 837q-31 0 -53.5 21t-21.5 51q2 30 23 54t51 24t53 -24.5t21 -54.5q-1 -27 -23.5 -49t-49.5 -22z" />
    <glyph glyph-name="afii10105" unicode="&#x458;" horiz-adv-x="724" 
d="M640 663l-21 -201q-17 -141 -43 -224q-35 -109 -108 -174q-81 -73 -189 -73q-112 0 -188 94q-40 49 -49 121q-6 45 -2 131q4 64 58 64q23 0 42.5 -20.5t18.5 -43.5q0 -9 -3.5 -23.5t-3.5 -21.5q-3 -67 35 -111.5t104 -44.5q52 0 96 24q50 27 62 73q41 151 54 414l1 20
q-41 0 -127 -10q-121 -14 -140 -14h-5q-49 0 -46 69q4 72 56 78q17 2 101 5q157 6 247 29q17 4 29 4q41 0 69 -29t26 -69q-3 -67 -74 -67z" />
    <glyph glyph-name="afii10110" unicode="&#x45e;" horiz-adv-x="720" 
d="M730 753q-1 -26 -63 -109q-27 -33 -77 -101q-44 -62 -169 -251q-51 -81 -101 -163q-90 -126 -145 -126q-27 0 -44 19t-16 46q1 22 28 57l145 192q-132 239 -196 305q-44 46 -42 88q2 36 26.5 62.5t59.5 26.5q54 0 81 -66q39 -93 151 -292l82 125q68 103 77 131
q36 111 141 111q24 0 44 -15t18 -40zM360 717q-66 0 -63 48q1 21 21 44q28 30 33 39q8 14 19 70q9 52 35 65q29 15 66 15q80 0 77 -49q-1 -17 -15 -36q-43 -56 -49 -65q-19 -31 -29 -70q-7 -31 -35.5 -46t-59.5 -15z" />
    <glyph glyph-name="endash" unicode="&#x2013;" horiz-adv-x="645" 
d="M600 414q-2 -35 -34 -54q-26 -14 -60 -14q-18 0 -55 2.5t-54 2.5q-115 0 -208 -24q-25 -6 -41 -6q-35 0 -63 24.5t-26 58.5q1 34 27.5 53t59.5 19q24 0 68.5 -7t66.5 -7q86 0 155 25q37 14 64 14q36 0 69 -25t31 -62z" />
    <glyph glyph-name="emdash" unicode="&#x2014;" horiz-adv-x="902" 
d="M874 406q-2 -35 -35 -54q-26 -14 -59 -14q-20 0 -56 2q-38 3 -54 3q-389 8 -481 -16q-25 -6 -41 -6q-35 0 -63 24.5t-26 58.5q1 34 27.5 53t59.5 19q25 0 69.5 -7t65.5 -7q84 -2 152 -2q224 0 277 19q37 14 64 14q36 0 69 -25t31 -62z" />
    <glyph glyph-name="quoteleft" unicode="&#x2018;" horiz-adv-x="355" 
d="M336 571q-3 -55 -68 -55q-83 0 -89 73q-5 43 -22 84q-6 15 -41 79q-12 24 -11 42q3 56 79 56q58 0 78 -30q18 -24 15 -81q-2 -41 29 -97.5t30 -70.5z" />
    <glyph glyph-name="quoteright" unicode="&#x2019;" horiz-adv-x="350" 
d="M153 516q-66 0 -63 55q1 25 21 51q26 35 34 49q8 16 19 84q9 60 35 76q29 19 67 19q80 0 77 -57q-1 -19 -16 -41q-43 -67 -49 -79q-19 -36 -30 -85q-7 -34 -34 -53t-61 -19z" />
    <glyph glyph-name="quotesinglbase" unicode="&#x201a;" horiz-adv-x="397" 
d="M129 -130q-67 0 -64 54q1 19 32 67q32 47 36 63l6 64q9 82 103 82q79 0 76 -55q-1 -20 -16 -42q-35 -55 -49 -83q-17 -47 -35 -96q-25 -54 -89 -54z" />
    <glyph glyph-name="quotedblleft" unicode="&#x201c;" horiz-adv-x="561" 
d="M531 624q-2 -55 -69 -55q-45 0 -75 47q-18 28 -40 96q-22 70 -34.5 94t-11.5 41q2 55 80 55q99 0 94 -102q-2 -47 11 -79q4 -9 29 -46q18 -27 16 -51zM332 571q-3 -55 -70 -55q-80 0 -87 73q-5 42 -22 84q-10 24 -41 79q-13 25 -12 42q3 56 80 56q57 0 78 -30
q18 -24 15 -81q-2 -41 28.5 -97.5t30.5 -70.5z" />
    <glyph glyph-name="quotedblright" unicode="&#x201d;" horiz-adv-x="546" 
d="M348 516q-67 0 -64 55q1 24 22 51q29 37 38 61q6 16 16 74.5t34 73.5q30 19 70 19q77 0 74 -56q-1 -18 -16 -42q-37 -57 -49 -79q-22 -40 -30 -85q-14 -72 -95 -72zM154 569q-67 0 -64 54q1 22 34 69q32 47 36 63q5 54 7 65q12 82 99 82q80 0 77 -56q-1 -19 -15 -41
q-16 -25 -50 -80q-19 -39 -30 -85q-14 -71 -94 -71z" />
    <glyph glyph-name="quotedblbase" unicode="&#x201e;" horiz-adv-x="533" 
d="M315 -15q-65 0 -62 54q1 24 21 50q29 38 37 59q6 15 16 73t33 73q28 17 68 17q76 0 73 -55q-1 -19 -15 -41q-37 -57 -48 -77q-23 -42 -30 -83q-13 -70 -93 -70zM126 36q-66 0 -63 53q1 22 33 68q32 45 36 61q5 48 6 64q11 80 98 80q77 0 75 -55q-1 -17 -16 -40
q-15 -24 -48 -78q-19 -38 -29 -83q-14 -70 -92 -70z" />
    <glyph glyph-name="dagger" unicode="&#x2020;" horiz-adv-x="555" 
d="M469 479q-19 0 -56.5 3t-56.5 3h-17q-19 -130 -26 -285q-1 -16 1 -47.5t1 -47.5q-2 -36 -32 -65t-66 -29q-27 0 -45 18t-17 45q1 17 16 56q19 54 41 235q9 79 12 108q-25 -4 -57 -14q-22 -6 -37 -6q-33 0 -60.5 26.5t-25.5 59.5q1 33 25.5 51.5t57.5 18.5q21 0 60.5 -6
t47.5 -6v12q3 54 0 67q-8 33 -7 47q2 38 34 69.5t70 31.5q61 0 57 -70q0 -15 -4 -31q-16 -64 -26 -115q-2 0 41 15q37 14 61 14q28 0 58 -21q37 -26 35 -65q-3 -72 -85 -72z" />
    <glyph glyph-name="daggerdbl" unicode="&#x2021;" horiz-adv-x="541" 
d="M456 468q-18 0 -55 2.5t-54 2.5h-18q-6 -45 -11 -88q6 1 58 18q47 16 69 16q27 0 56 -20q37 -26 35 -64q-3 -70 -84 -70q-18 0 -55 2.5t-55 2.5q-21 0 -33 -1q-3 -33 -5 -74q-1 -15 1 -46t2 -46q-2 -36 -31 -64t-65 -28q-27 0 -44.5 17.5t-16.5 43.5q1 21 20 95
q21 79 22 87q9 2 -27 -8q-27 -7 -44 -7q-32 0 -59 26t-25 58q1 32 25.5 50.5t56.5 18.5q15 0 60 -7q6 -1 29 -4q6 46 9 80q-26 -5 -55 -13q-23 -6 -37 -6q-32 0 -59 26t-25 58q1 32 25.5 50.5t56.5 18.5q21 0 58 -6q40 -6 47 -6v12q3 52 0 65q-8 32 -7 46q2 37 33.5 68
t68.5 31q60 0 56 -69q0 -14 -4 -30q-15 -60 -26 -112q-2 0 41 14q37 14 59 14q27 0 56 -20q37 -26 35 -64q-3 -70 -84 -70z" />
    <glyph glyph-name="ellipsis" unicode="&#x2026;" horiz-adv-x="895" 
d="M712 -3q-36 0 -62.5 24t-24.5 60q2 35 26.5 63t59.5 28t61.5 -28.5t25.5 -63.5q-2 -32 -28 -57.5t-58 -25.5zM449 -3q-36 0 -62.5 24.5t-24.5 59.5t26.5 63t59.5 28t61.5 -28.5t25.5 -63.5q-2 -32 -28 -57.5t-58 -25.5zM186 -3q-36 0 -62.5 24.5t-24.5 59.5t26.5 63
t59.5 28q36 0 63 -28t25 -64q-2 -33 -28 -58t-59 -25z" />
    <glyph glyph-name="perthousand" unicode="&#x2030;" horiz-adv-x="1282" 
d="M1254 246q-6 -107 -105 -172q-84 -56 -195 -56q-73 0 -132 31q-26 13 -39 30q-9 -7 -19 -14q-87 -56 -196 -56q-73 0 -131 31q-67 35 -81 77l-34 -66q-32 -52 -88 -52q-29 0 -48.5 20t-17.5 49q1 25 63 103l81 103q28 42 66 103q-29 -11 -92 -11q-90 0 -157 49
q-76 55 -72 144q6 107 106 172q86 57 194 57q161 0 206 -97q-5 -10 -3 -4q12 43 36 73q32 38 75 38q31 0 52.5 -19.5t20.5 -49.5q-1 -28 -37 -71q-57 -69 -166 -240q33 14 98 14q115 0 173 -62q34 35 86 46q61 25 126 25q92 0 159 -49q75 -55 71 -146zM346 677
q-51 0 -95 -33q-46 -35 -48 -82q-2 -39 22 -61.5t64 -22.5q55 0 102 35q50 36 53 88q1 35 -30 56q-29 20 -68 20zM1015 318q-54 0 -97 -32q-46 -33 -48 -84q-2 -38 23 -60.5t64 -22.5q53 0 100 35q50 37 53 87q1 35 -29 57q-27 20 -66 20zM630 318q-54 0 -97 -32
q-46 -33 -48 -84q-2 -38 23 -60.5t64 -22.5q53 0 100 35q50 37 53 87q1 35 -29 57q-27 20 -66 20z" />
    <glyph glyph-name="guilsinglleft" unicode="&#x2039;" horiz-adv-x="705" 
d="M679 -6q-3 -60 -71 -60q-81 0 -142 74q-16 23 -63 80q-57 67 -166 154q-45 36 -88 61q-72 43 -98 91q-8 15 -7 31q1 15 9 30q30 49 108 92q43 23 94 61q160 119 232 209q80 99 169 99q69 0 66 -61q-2 -51 -88 -105q-166 -105 -395 -326q145 -165 270 -258q28 -19 101 -71
q72 -53 69 -101z" />
    <glyph glyph-name="fraction" unicode="&#x2044;" horiz-adv-x="596" 
d="M86 -4q-32 0 -51 19.5t-17 50.5q0 16 116 180q43 58 126 177q136 207 159 276q35 113 121 113q69 0 66 -65q-2 -35 -36 -77q-94 -119 -243 -355l-74 -117q-17 -36 -53 -104q-41 -78 -72 -89q-23 -9 -42 -9z" />
    <glyph glyph-name="afii61352" unicode="&#x2116;" horiz-adv-x="653" 
d="M621 543q-4 -67 -95 -64q-8 -49 -13 -95q28 -1 56 -23q32 -26 30 -65q-2 -42 -42 -59q-30 -13 -71 -10l9 -5q-4 -45 -5 -57q-1 -13 1 -38t1 -38q-2 -38 -31.5 -67t-67.5 -29q-28 0 -45 19t-15 47q1 24 27 107q7 35 12 62q-67 -3 -134 -16q-5 -38 -5 -50q-1 -12 1 -36.5
t1 -36.5q-2 -38 -31 -67t-67 -29q-29 0 -46 20t-15 48q1 20 14 58q8 24 20 75q-21 4 -44 28t-21 55q3 68 89 69q4 30 13 96q-27 1 -52 23q-30 24 -28 62t39 57q28 14 55 13q2 33 3 47q1 15 -2.5 45.5t-3.5 45.5q2 39 31.5 70.5t68.5 31.5q65 0 61 -69q-1 -17 -8.5 -48
t-11 -48.5t-13.5 -82.5q65 0 133 21l2 29q0 16 -3.5 48t-3.5 48q2 40 33.5 71t71.5 31q60 0 56 -72q-1 -24 -12 -72q-11 -51 -13 -60q75 -13 71 -90zM407 480q-76 -3 -140 -15q-10 -64 -17 -128v0q77 0 143 19q4 41 14 124z" />
    <glyph glyph-name="trademark" unicode="&#x2122;" horiz-adv-x="941" 
d="M1114 476q-3 -53 -63 -53q-35 0 -33 41q1 17 6.5 48.5t6.5 46.5v91q-3 -5 -47 -90q-41 -80 -68 -121q-17 -27 -37 -27q-8 0 -19 5q-26 12 -35 55q-32 158 -60 211q-31 -130 -35 -201q-3 -58 -63 -58q-31 0 -29 31q0 12 11 40q17 41 36 135t21 140q1 5 0 14t0 14
q1 27 18.5 43t43.5 16q30 0 30 -35q31 -59 58 -150q3 -11 35 -132l131 262q0 21 17.5 40.5t40.5 19.5q39 0 36 -50q0 -17 -2.5 -47.5t-3.5 -45.5q-8 -162 2 -224q2 -10 2 -19zM614 812q1 14 -10.5 24t-26.5 10q-3 0 -10 -2q-46 -11 -120 -12h-84q-46 -4 -47 -31l-1 -20
q-238 -20 121 10q3 -29 1 -71q-9 -171 -31 -240q-7 -20 -8 -29q0 -14 12 -14q40 0 41 33q1 9 0.5 27.5t-0.5 27.5q7 140 30 248q1 20 23 21h32q10 0 26.5 -2t25.5 -2q25 0 26 22z" />
    <glyph glyph-name="FL0061h" 
 />
    <glyph glyph-name="FL0062h" 
 />
    <glyph glyph-name="FL0063h" 
 />
    <glyph glyph-name="FL0064h" 
 />
    <glyph glyph-name="FL0065h" 
 />
    <glyph glyph-name="FL0066h" 
 />
    <glyph glyph-name="FL0067h" 
 />
    <glyph glyph-name="FL0068h" 
 />
    <glyph glyph-name="FL0069h" 
 />
    <glyph glyph-name="FL006Ah" 
 />
    <glyph glyph-name="FL006Bh" 
 />
    <glyph glyph-name="FL006Ch" 
 />
    <glyph glyph-name="FL006Dh" 
 />
    <glyph glyph-name="FL006Eh" 
 />
    <glyph glyph-name="FL006Fh" 
 />
    <glyph glyph-name="FL0070h" 
 />
    <glyph glyph-name="FL0071h" 
 />
    <glyph glyph-name="FL0072h" 
 />
    <glyph glyph-name="FL0073h" 
 />
    <glyph glyph-name="FL0074h" 
 />
    <glyph glyph-name="FL0075h" 
 />
    <glyph glyph-name="FL0076h" 
 />
    <glyph glyph-name="FL0077h" 
 />
    <glyph glyph-name="FL0078h" 
 />
    <glyph glyph-name="FL0079h" 
 />
    <glyph glyph-name="FL007Ah" 
 />
    <glyph glyph-name="FL00A3h" 
 />
    <glyph glyph-name="FL00A8h" 
 />
    <glyph glyph-name="FL00AAh" 
 />
    <glyph glyph-name="FL00AFh" 
 />
    <glyph glyph-name="FL00B2h" 
 />
    <glyph glyph-name="FL00B3h" 
 />
    <glyph glyph-name="FL00B7h" 
 />
    <glyph glyph-name="FL00B8h" 
 />
    <glyph glyph-name="FL00BAh" 
 />
    <glyph glyph-name="FL00BCh" 
 />
    <glyph glyph-name="FL00BDh" 
 />
    <glyph glyph-name="FL00BEh" 
 />
    <glyph glyph-name="FL00BFh" 
 />
    <glyph glyph-name="FL00C0h" 
 />
    <glyph glyph-name="FL00C1h" 
 />
    <glyph glyph-name="FL00C2h" 
 />
    <glyph glyph-name="FL00C3h" 
 />
    <glyph glyph-name="FL00C4h" 
 />
    <glyph glyph-name="FL00C5h" 
 />
    <glyph glyph-name="FL00C6h" 
 />
    <glyph glyph-name="FL00C7h" 
 />
    <glyph glyph-name="FL00C8h" 
 />
    <glyph glyph-name="FL00C9h" 
 />
    <glyph glyph-name="FL00CAh" 
 />
    <glyph glyph-name="FL00CBh" 
 />
    <glyph glyph-name="FL00CCh" 
 />
    <glyph glyph-name="FL00CDh" 
 />
    <glyph glyph-name="FL00CEh" 
 />
    <glyph glyph-name="FL00CFh" 
 />
    <glyph glyph-name="FL00D0h" 
 />
    <glyph glyph-name="FL00D1h" 
 />
    <glyph glyph-name="FL00D2h" 
 />
    <glyph glyph-name="FL00D3h" 
 />
    <glyph glyph-name="FL00D4h" 
 />
    <glyph glyph-name="FL00D5h" 
 />
    <glyph glyph-name="FL00D6h" 
 />
    <glyph glyph-name="FL00D7h" 
 />
    <glyph glyph-name="FL00D8h" 
 />
    <glyph glyph-name="FL00D9h" 
 />
    <glyph glyph-name="FL00DAh" 
 />
    <glyph glyph-name="FL00DBh" 
 />
    <glyph glyph-name="FL00DCh" 
 />
    <glyph glyph-name="FL00DDh" 
 />
    <glyph glyph-name="FL00DEh" 
 />
    <glyph glyph-name="FL00DFh" 
 />
    <glyph glyph-name="FL00E0h" 
 />
    <glyph glyph-name="FL00E1h" 
 />
    <glyph glyph-name="FL00E2h" 
 />
    <glyph glyph-name="FL00E3h" 
 />
    <glyph glyph-name="FL00E4h" 
 />
    <glyph glyph-name="FL00E5h" 
 />
    <glyph glyph-name="FL00E6h" 
 />
    <glyph glyph-name="FL00E7h" 
 />
    <glyph glyph-name="FL00E8h" 
 />
    <glyph glyph-name="FL00E9h" 
 />
    <glyph glyph-name="FL00EAh" 
 />
    <glyph glyph-name="FL00EBh" 
 />
    <glyph glyph-name="FL00ECh" 
 />
    <glyph glyph-name="FL00EDh" 
 />
    <glyph glyph-name="FL00EEh" 
 />
    <glyph glyph-name="FL00EFh" 
 />
    <glyph glyph-name="FL00F0h" 
 />
    <glyph glyph-name="FL00F1h" 
 />
    <glyph glyph-name="FL00F2h" 
 />
    <glyph glyph-name="FL00F3h" 
 />
    <glyph glyph-name="FL00F4h" 
 />
    <glyph glyph-name="FL00F5h" 
 />
    <glyph glyph-name="FL00F6h" 
 />
    <glyph glyph-name="FL00F7h" 
 />
    <glyph glyph-name="FL00F8h" 
 />
    <glyph glyph-name="FL00F9h" 
 />
    <glyph glyph-name="FL00FAh" 
 />
    <glyph glyph-name="FL00FBh" 
 />
    <glyph glyph-name="FL00FCh" 
 />
    <glyph glyph-name="FL00FDh" 
 />
    <glyph glyph-name="FL00FEh" 
 />
    <glyph glyph-name="FL00FFh" 
 />
    <glyph glyph-name="FL0168" 
 />
    <glyph glyph-name="FL0184" 
 />
    <glyph glyph-name="FL0401h" 
 />
    <glyph glyph-name="FL0404h" 
 />
    <glyph glyph-name="FL0405h" 
 />
    <glyph glyph-name="FL0407h" 
 />
    <glyph glyph-name="FL0408h" 
 />
    <glyph glyph-name="FL040Eh" 
 />
    <glyph glyph-name="FL0410h" 
 />
    <glyph glyph-name="FL0411h" 
 />
    <glyph glyph-name="FL0412h" 
 />
    <glyph glyph-name="FL0413h" 
 />
    <glyph glyph-name="FL0414h" 
 />
    <glyph glyph-name="FL0415h" 
 />
    <glyph glyph-name="FL0416h" 
 />
    <glyph glyph-name="FL0417h" 
 />
    <glyph glyph-name="FL0418h" 
 />
    <glyph glyph-name="FL0419h" 
 />
    <glyph glyph-name="FL041Ah" 
 />
    <glyph glyph-name="FL041Bh" 
 />
    <glyph glyph-name="FL041Ch" 
 />
    <glyph glyph-name="FL041Dh" 
 />
    <glyph glyph-name="FL041Eh" 
 />
    <glyph glyph-name="FL041Fh" 
 />
    <glyph glyph-name="FL0420h" 
 />
    <glyph glyph-name="FL0421h" 
 />
    <glyph glyph-name="FL0422h" 
 />
    <glyph glyph-name="FL0423h" 
 />
    <glyph glyph-name="FL0424h" 
 />
    <glyph glyph-name="FL0425h" 
 />
    <glyph glyph-name="FL0426h" 
 />
    <glyph glyph-name="FL0427h" 
 />
    <glyph glyph-name="FL0428h" 
 />
    <glyph glyph-name="FL0429h" 
 />
    <glyph glyph-name="FL042Ah" 
 />
    <glyph glyph-name="FL042Bh" 
 />
    <glyph glyph-name="FL042Ch" 
 />
    <glyph glyph-name="FL042Dh" 
 />
    <glyph glyph-name="FL042Eh" 
 />
    <glyph glyph-name="FL042Fh" 
 />
    <glyph glyph-name="FL0430h" 
 />
    <glyph glyph-name="FL0431h" 
 />
    <glyph glyph-name="FL0432h" 
 />
    <glyph glyph-name="FL0433h" 
 />
    <glyph glyph-name="FL0434h" 
 />
    <glyph glyph-name="FL0435h" 
 />
    <glyph glyph-name="FL0436h" 
 />
    <glyph glyph-name="FL0437h" 
 />
    <glyph glyph-name="FL0438h" 
 />
    <glyph glyph-name="FL0439h" 
 />
    <glyph glyph-name="FL043Ah" 
 />
    <glyph glyph-name="FL043Bh" 
 />
    <glyph glyph-name="FL043Ch" 
 />
    <glyph glyph-name="FL043Dh" 
 />
    <glyph glyph-name="FL043Eh" 
 />
    <glyph glyph-name="FL043Fh" 
 />
    <glyph glyph-name="FL0440h" 
 />
    <glyph glyph-name="FL0441h" 
 />
    <glyph glyph-name="FL0442h" 
 />
    <glyph glyph-name="FL0443h" 
 />
    <glyph glyph-name="FL0444h" 
 />
    <glyph glyph-name="FL0445h" 
 />
    <glyph glyph-name="FL0446h" 
 />
    <glyph glyph-name="FL0447h" 
 />
    <glyph glyph-name="FL0448h" 
 />
    <glyph glyph-name="FL0449h" 
 />
    <glyph glyph-name="FL044Ah" 
 />
    <glyph glyph-name="FL044Bh" 
 />
    <glyph glyph-name="FL044Ch" 
 />
    <glyph glyph-name="FL044Dh" 
 />
    <glyph glyph-name="FL044Eh" 
 />
    <glyph glyph-name="FL044Fh" 
 />
    <glyph glyph-name="FL0451h" 
 />
    <glyph glyph-name="FL0454h" 
 />
    <glyph glyph-name="FL0455h" 
 />
    <glyph glyph-name="FL0456h" 
 />
    <glyph glyph-name="FL0457h" 
 />
    <glyph glyph-name="FL0458h" 
 />
    <glyph glyph-name="FL045Eh" 
 />
    <glyph glyph-name="NULL" horiz-adv-x="0" 
 />
    <glyph glyph-name="Yacute" horiz-adv-x="703" 
d="M150 384q0 36 32 66t69 34q25 3 64 -8q60 -18 150 -8q34 4 103 14q-3 38 -15 83q-61 98 -144 106q-23 2 -43 2q-41 0 -76 -12q-43 -16 -46 -46q-4 -30 -27 -48t-54 -18q-30 0 -46 26.5t-11 55.5q7 40 45 76q58 68 120 89q40 14 99 14q36 0 78 -4q117 -14 199 -146
q64 -104 57 -244q-1 -24 -4 -48q-24 -182 -135 -275q-121 -98 -255 -98q-144 0 -256 118q-30 50 -25 76q3 21 24.5 41t43.5 20q50 0 98 -79q41 -48 122 -48q23 0 50 4q72 12 129 77q53 61 66 137v-3l-10 2l-204 2q-36 -7 -108 -18q-33 -3 -58 9q-32 16 -32 51z" />
    <glyph glyph-name="glyph454" 
 />
    <glyph glyph-name="periodcentered" horiz-adv-x="370" 
d="M189 -3q-36 0 -62.5 24.5t-24.5 59.5t26.5 63t59.5 28q36 0 63 -28t25 -64q-2 -33 -28 -58t-59 -25z" />
    </font>
</defs>
</svg>
